<svg class="img-fluid" id="outputsvg" xmlns="http://www.w3.org/2000/svg" style="transform: matrix(1.11388, 0, 0, 1.11388, -33, 16); transform-origin: 50% 50%; cursor: move; max-height: 376.96px; transition: none;" width="1998" height="1998" viewBox="0 0 19980 19980"><g id="l6E7C7C4g8Cb7Ib9teyOlHH" fill="rgb(206,215,221)" style="transform: none;"><g style="transform: none;"><path id="p447eR6IN" d="M10070 17165 c0 -14 6 -16 50 -19 8 -1 16 -8 18 -18 4 -20 64 -47 69 -31 3 7 10 10 18 7 8 -3 12 -11 9 -18 -3 -7 12 -20 36 -31 34 -15 43 -16 50 -6 9 16 33 5 27 -12 -3 -10 319 -167 343 -167 6 0 10 4 10 10 0 5 7 7 15 4 10 -4 15 0 15 14 0 22 -1 22 -180 105 -152 70 -168 77 -176 77 -5 0 -31 11 -59 24 -27 14 -74 36 -103 50 -62 30 -142 36 -142 11z"></path><path id="p1HehS5Nhi" d="M9790 17157 c-8 -8 -43 -24 -77 -38 -35 -13 -63 -29 -63 -36 0 -7 -12 -13 -27 -13 -37 0 -113 -32 -113 -47 0 -8 -13 -13 -31 -13 -33 0 -199 -68 -199 -82 0 -4 -11 -8 -25 -8 -14 0 -25 -4 -25 -10 0 -5 -7 -10 -15 -10 -8 0 -15 -4 -15 -10 0 -5 -11 -10 -25 -10 -18 0 -25 -5 -25 -19 0 -23 36 -35 44 -14 4 9 14 13 26 10 14 -3 20 0 20 10 0 10 6 14 19 10 12 -3 22 1 25 10 4 9 14 13 26 10 11 -3 20 -1 20 5 0 5 5 6 10 3 6 -3 10 -2 10 4 0 6 7 8 15 5 8 -4 15 -1 15 6 0 6 5 8 10 5 6 -3 10 -1 10 5 0 6 5 8 10 5 6 -3 10 -1 10 5 0 6 5 8 10 5 6 -3 10 -1 10 5 0 7 7 10 15 6 8 -3 15 -1 15 5 0 14 88 52 106 45 8 -3 14 -1 14 5 0 6 5 7 10 4 6 -3 10 -1 10 6 0 7 3 10 6 7 3 -4 14 2 25 13 10 10 28 20 39 21 11 0 26 1 33 2 6 1 18 7 26 14 7 7 20 11 27 8 8 -3 14 -1 14 5 0 6 5 7 10 4 6 -3 10 2 10 12 0 15 2 16 10 3 8 -12 10 -12 10 -1 0 8 3 12 6 9 7 -8 44 28 44 42 0 15 -63 12 -80 -3z"></path><path id="peSW4q7I9" d="M8830 17060 c-36 -10 -100 -26 -142 -36 -43 -10 -78 -22 -78 -26 0 -4 -18 -8 -40 -8 -22 0 -48 -4 -58 -9 -9 -5 -37 -14 -62 -20 -25 -6 -70 -17 -100 -25 -30 -8 -72 -17 -92 -21 -36 -6 -38 -8 -38 -43 l0 -38 70 -12 c81 -14 120 -15 120 -4 0 14 -37 30 -84 37 -44 7 -57 17 -36 30 6 3 10 0 10 -7 0 -9 3 -9 8 -2 9 14 52 25 52 13 0 -5 5 -9 11 -9 6 0 9 7 5 15 -3 8 -1 15 4 15 6 0 10 -4 10 -10 0 -5 5 -10 10 -10 6 0 10 7 10 15 0 13 4 14 22 4 15 -8 23 -8 26 -1 1 5 12 8 22 5 11 -3 20 -1 20 5 0 6 10 8 22 4 17 -4 20 -2 14 13 -5 14 -4 16 8 6 11 -9 15 -8 20 4 3 8 9 14 13 14 4 -1 16 1 26 6 10 4 36 5 57 2 24 -3 40 -1 40 5 0 6 7 8 15 4 9 -3 15 1 15 11 0 14 2 14 22 1 12 -8 24 -21 26 -29 3 -8 1 -11 -3 -7 -9 9 -105 -41 -105 -54 0 -17 62 -7 122 21 35 16 96 42 135 58 72 28 73 28 73 66 l0 37 -52 -1 c-29 0 -82 -9 -118 -19z"></path><path id="pb6Z3J3kG" d="M10980 17044 c0 -34 2 -36 77 -71 42 -19 94 -38 115 -41 23 -3 38 -10 38 -18 0 -9 11 -14 30 -14 17 0 30 3 30 6 0 8 -27 34 -37 34 -4 0 -20 8 -34 18 -26 17 -26 17 -7 37 16 16 18 17 13 2 -5 -12 -2 -17 9 -17 9 0 16 5 16 10 0 6 4 10 10 10 5 0 7 -7 3 -17 -5 -13 -2 -15 15 -11 12 4 22 2 22 -4 0 -6 9 -8 20 -5 11 3 20 1 20 -4 0 -14 30 -11 30 4 1 7 6 5 14 -6 15 -19 159 -59 165 -45 1 5 9 1 16 -8 9 -13 27 -17 74 -17 33 0 61 -4 61 -8 0 -8 -48 -23 -104 -33 -32 -6 -54 -22 -43 -32 3 -4 55 0 114 7 l108 14 3 37 c2 28 -1 37 -15 41 -10 3 -56 15 -103 27 -47 11 -116 30 -155 40 -38 10 -101 23 -140 30 -38 7 -79 16 -90 21 -11 4 -40 12 -65 18 -25 5 -63 14 -85 20 -22 6 -59 11 -82 11 -43 0 -43 0 -43 -36z"></path><path id="pEhW69q7S" d="M7980 16655 c0 -8 7 -15 15 -15 9 0 18 -7 22 -16 4 -11 13 -14 29 -10 14 4 24 2 24 -4 0 -14 27 -13 32 2 2 6 10 8 16 4 9 -5 9 -11 -2 -22 -8 -8 -17 -14 -21 -14 -8 0 -35 -26 -35 -34 0 -3 14 -6 30 -6 17 0 30 5 30 10 0 6 7 10 15 10 10 0 15 10 15 30 0 17 -4 30 -10 30 -5 0 -10 6 -10 13 0 8 -21 18 -51 25 -69 16 -99 15 -99 -3z"></path><path id="pRDGSa64o" d="M11818 16639 c-23 -13 -25 -74 -2 -83 21 -8 74 -8 74 0 0 4 -10 15 -22 26 -19 16 -20 21 -8 28 8 6 21 10 28 10 6 0 12 7 12 15 0 18 -55 20 -82 4z"></path><path id="p7R8oPRac" d="M8730 16485 c0 -8 6 -15 14 -15 8 0 21 -7 29 -15 21 -20 77 -9 77 15 0 12 -11 20 -31 24 -55 11 -89 7 -89 -9z"></path><path id="ptvSi9n7A" d="M8363 16459 c-29 -17 -53 -37 -53 -45 0 -8 -10 -14 -21 -14 -24 0 -99 -39 -99 -52 0 -4 -8 -8 -17 -8 -25 -1 -53 -24 -53 -44 0 -11 -9 -16 -29 -16 -16 0 -56 -15 -88 -32 -160 -89 -183 -104 -183 -115 0 -6 -12 -13 -27 -15 -22 -2 -29 -9 -31 -31 -3 -25 -2 -26 21 -18 14 6 28 7 31 4 3 -4 6 1 6 9 0 17 26 31 41 22 5 -3 9 0 9 6 0 6 4 9 9 6 5 -3 12 1 15 10 3 8 10 12 16 9 5 -3 10 -1 10 5 0 6 5 8 10 5 6 -3 10 -1 10 5 0 6 4 9 8 6 5 -3 16 4 25 15 10 11 22 17 27 14 6 -3 10 -1 10 6 0 7 3 9 7 6 3 -4 11 0 17 8 6 7 18 15 26 17 8 2 22 10 30 19 20 22 76 50 84 42 3 -4 6 -1 6 6 0 7 5 9 10 6 6 -3 10 0 10 8 0 13 43 33 63 29 4 -1 7 2 7 7 0 10 56 47 79 53 8 2 23 11 33 21 10 10 22 16 26 14 4 -2 23 12 42 30 l35 33 -35 0 c-21 0 -56 -13 -87 -31z"></path><path id="pd1nnNFvN" d="M12080 16418 c0 -18 9 -28 35 -38 19 -8 35 -17 35 -22 0 -4 14 -8 30 -8 17 0 30 3 30 6 0 9 -28 34 -38 34 -6 0 -13 7 -16 16 -3 8 -10 13 -15 10 -5 -4 -11 -2 -13 3 -1 4 -13 12 -25 15 -19 6 -23 4 -23 -16z"></path><path id="pnXsA7pic" d="M7054 16365 c-4 -8 -13 -15 -21 -15 -32 0 -73 -30 -73 -55 0 -22 3 -24 25 -15 14 5 25 8 25 5 0 -2 15 9 32 26 18 16 34 25 36 20 3 -8 52 34 52 44 0 3 -16 5 -35 5 -22 0 -38 -6 -41 -15z"></path><path id="pK7B7vaxw" d="M11695 16360 c10 -11 25 -20 33 -20 12 0 12 -3 2 -15 -13 -16 -11 -17 33 -20 38 -3 79 -26 73 -42 -3 -7 1 -13 9 -13 8 0 15 5 15 10 0 6 16 0 35 -12 19 -13 33 -28 30 -35 -5 -16 35 -29 45 -14 5 9 10 8 19 -3 7 -8 10 -20 6 -26 -4 -7 3 -10 22 -8 22 2 28 -1 27 -14 -2 -17 10 -22 44 -21 8 1 11 -5 8 -14 -5 -12 -1 -14 15 -10 15 4 19 2 15 -9 -3 -8 1 -14 8 -14 8 0 17 6 19 13 4 10 6 10 6 0 1 -7 8 -13 17 -13 13 0 14 -3 4 -15 -10 -12 -7 -14 19 -12 25 2 31 6 31 25 0 12 -6 22 -14 22 -8 0 -16 4 -18 8 -6 15 -112 82 -129 82 -9 0 -19 7 -23 15 -3 8 -15 15 -26 15 -11 0 -20 4 -20 8 0 13 -57 42 -83 42 -16 0 -26 7 -30 20 -3 10 -17 22 -33 26 -16 4 -37 16 -48 26 -11 10 -28 18 -38 18 -10 0 -18 5 -18 10 0 6 -16 10 -37 10 -35 0 -36 0 -18 -20z"></path><path id="pefGuVvGt" d="M13670 16355 c0 -14 4 -25 9 -25 5 0 23 -13 39 -30 17 -16 38 -30 46 -30 9 0 16 -4 16 -10 0 -5 14 -10 30 -10 24 0 30 -4 30 -22 0 -26 47 -58 86 -58 24 0 24 1 8 25 -9 14 -20 23 -24 20 -5 -3 -10 -2 -12 3 -1 4 -20 18 -40 31 -21 12 -38 27 -38 32 0 5 -4 9 -9 9 -6 0 -24 13 -42 30 -18 16 -36 27 -40 24 -4 -2 -11 2 -16 9 -4 7 -16 16 -25 20 -14 5 -18 1 -18 -18z"></path><path id="p9nCnN17v" d="M9210 16355 c0 -8 51 -55 60 -55 4 0 10 6 13 13 3 9 7 9 20 -2 10 -7 17 -11 17 -8 0 3 14 1 30 -4 17 -6 30 -17 30 -25 0 -17 27 -19 32 -2 3 7 9 8 18 3 8 -5 25 -10 39 -11 13 -2 36 -15 50 -30 l25 -27 -30 -23 c-16 -13 -32 -24 -36 -24 -5 0 -8 -4 -8 -10 0 -15 47 -12 107 7 l53 17 0 42 c0 41 -2 44 -37 53 -21 6 -55 11 -75 11 -21 0 -38 3 -38 8 0 10 -73 32 -105 32 -14 0 -25 5 -25 10 0 6 -9 10 -19 10 -11 0 -23 5 -26 10 -6 10 -95 15 -95 5z"></path><path id="pD4IjW6Jm" d="M12943 16335 c16 -14 26 -29 22 -34 -3 -5 4 -13 16 -16 13 -4 24 -2 29 4 5 9 10 8 19 -3 7 -8 10 -20 6 -26 -3 -5 1 -10 9 -10 9 0 16 5 16 11 0 6 7 3 16 -5 8 -9 12 -20 9 -26 -3 -5 -1 -10 5 -10 6 0 18 -7 26 -15 18 -18 44 -20 44 -4 0 8 5 7 15 -1 9 -7 13 -20 10 -28 -4 -11 0 -13 16 -9 15 4 19 2 15 -9 -3 -8 1 -14 9 -14 8 0 15 5 15 11 0 8 5 7 15 -1 9 -7 14 -19 11 -26 -5 -14 48 -39 63 -29 6 3 11 1 11 -4 0 -10 -7 -12 -70 -17 -14 -1 -33 -2 -42 -3 -10 0 -18 -8 -18 -16 0 -12 17 -15 95 -15 l95 0 0 38 c0 34 -4 39 -49 65 -27 15 -54 27 -59 27 -6 0 -23 11 -38 25 -15 14 -33 25 -40 25 -7 0 -25 11 -40 25 -27 25 -102 65 -122 65 -7 0 -12 4 -12 10 0 16 -56 40 -92 40 l-33 -1 28 -24z"></path><path id="p1CDRK49V3" d="M10613 16333 c-7 -2 -13 -13 -13 -24 0 -17 6 -19 37 -17 36 3 73 23 73 40 0 9 -77 10 -97 1z"></path><path id="ptVBw4AH1" d="M12252 16314 c2 -21 15 -33 53 -53 27 -14 51 -29 53 -33 4 -9 62 -11 62 -2 0 10 -28 34 -39 34 -6 0 -11 4 -11 9 0 11 -53 45 -93 60 -27 10 -28 10 -25 -15z"></path><path id="p11tTrYGqt" d="M10388 16264 c-45 -14 -48 -17 -48 -47 0 -42 15 -57 57 -57 37 0 46 24 13 33 -11 3 -20 10 -20 16 0 13 45 25 59 16 6 -3 11 -2 11 4 0 5 9 13 20 16 11 3 20 13 20 21 0 18 -49 17 -112 -2z"></path><path id="p3amY1GtJ" d="M6820 16240 c-25 -16 -50 -34 -56 -39 -6 -5 -20 -12 -32 -15 -13 -4 -22 -16 -22 -27 0 -15 -7 -19 -34 -19 -44 0 -66 -22 -66 -66 l0 -34 75 0 c57 0 75 3 75 14 0 14 -29 26 -67 26 -13 0 -23 5 -23 11 0 5 5 7 10 4 6 -3 10 0 10 8 0 16 47 40 61 32 5 -4 9 -1 9 5 0 6 5 8 10 5 6 -3 10 1 10 10 0 11 5 15 15 11 8 -3 15 -1 15 5 0 6 5 7 10 4 6 -3 10 -1 10 5 0 6 4 9 9 6 5 -3 12 1 15 10 4 9 9 15 12 12 5 -6 64 46 64 56 0 18 -70 2 -110 -24z"></path><path id="pOwSkKApW" d="M14000 16115 c0 -16 6 -25 15 -25 8 0 15 -6 15 -14 0 -8 7 -17 16 -20 19 -7 64 -8 64 -1 0 11 -35 45 -47 45 -6 0 -16 6 -20 13 -4 8 -16 16 -25 20 -14 5 -18 1 -18 -18z"></path><path id="ptXU8Gr7u" d="M9918 16087 c-19 -7 -28 -18 -28 -33 0 -21 3 -22 31 -14 18 5 35 7 40 5 4 -3 10 1 12 7 4 10 7 10 14 0 5 -7 18 -12 29 -11 37 4 54 -1 54 -16 0 -8 7 -15 15 -15 8 0 15 4 15 10 0 5 7 7 15 4 10 -4 15 0 15 14 0 15 -14 24 -59 41 -63 23 -110 25 -153 8z"></path><path id="pUX6xe0D4" d="M7667 16043 c-4 -3 -7 -24 -7 -45 0 -36 2 -38 30 -38 17 0 30 5 30 10 0 6 -4 10 -10 10 -15 0 -12 27 5 44 8 8 15 17 15 20 0 8 -55 7 -63 -1z"></path><path id="pdYGbHOmV" d="M12210 15711 c0 -12 9 -20 25 -23 14 -3 25 -1 25 3 0 5 7 9 15 9 8 0 15 7 15 15 0 11 -11 15 -40 15 -33 0 -40 -4 -40 -19z"></path><path id="pUjEgE8sy" d="M8970 15621 c0 -21 6 -30 23 -35 34 -9 77 -7 77 4 0 12 -53 40 -75 40 -9 0 -13 5 -10 10 3 6 1 10 -4 10 -6 0 -11 -13 -11 -29z"></path><path id="p4OW9OCi3" d="M8170 15627 c0 -8 11 -18 25 -21 14 -4 25 -13 25 -21 0 -8 6 -15 13 -16 6 0 1 -6 -13 -12 -38 -18 -70 -41 -70 -49 0 -14 69 -8 77 6 4 8 19 16 33 18 21 2 25 9 28 42 2 21 -1 43 -6 48 -5 5 -32 11 -60 15 -43 5 -52 3 -52 -10z"></path><path id="pXRvxFg1c" d="M11673 15615 c-7 -8 -13 -28 -13 -45 0 -27 3 -30 30 -30 17 0 30 5 30 10 0 6 -4 10 -9 10 -5 0 -12 7 -15 16 -5 13 -2 15 14 11 11 -3 20 -1 20 4 0 5 7 9 15 9 8 0 15 7 15 15 0 20 -70 20 -87 0z"></path><path id="p1Cezwjtlc" d="M6647 15526 c-15 -14 -36 -30 -47 -36 -11 -6 -19 -14 -19 -18 3 -20 -3 -30 -28 -41 -22 -10 -24 -14 -12 -22 7 -5 9 -9 3 -9 -7 0 -14 -9 -17 -20 -7 -28 34 -27 53 1 8 12 27 34 43 49 15 16 27 32 27 36 0 4 7 12 16 18 10 8 14 23 12 40 l-3 28 -28 -26z"></path><path id="p17Y5iigqw" d="M10555 15500 c-16 -9 -33 -16 -37 -13 -7 4 -48 -32 -48 -42 0 -12 63 -3 114 16 38 15 56 27 56 39 0 23 -46 23 -85 0z"></path><path id="pwwRWovVS" d="M9350 15491 c0 -26 9 -31 70 -38 31 -4 50 -2 50 5 0 10 -29 26 -42 24 -5 -1 -8 3 -8 8 0 6 -3 9 -7 9 -5 -1 -10 -1 -13 1 -31 11 -50 8 -50 -9z"></path><path id="p14YzFwd1X" d="M8570 15465 c0 -9 -9 -15 -23 -15 -26 0 -77 -21 -77 -32 0 -5 -6 -8 -12 -8 -7 0 -47 -20 -88 -45 -41 -24 -94 -53 -117 -65 -24 -11 -43 -27 -43 -35 0 -10 -10 -15 -27 -15 -36 -1 -63 -22 -63 -49 0 -25 2 -25 39 -6 16 8 31 11 35 8 3 -4 6 1 6 9 0 16 53 41 64 31 3 -4 6 2 6 13 0 16 2 17 10 4 7 -11 10 -11 10 -2 0 7 5 10 10 7 6 -3 10 2 10 12 0 15 2 16 10 3 8 -12 10 -12 10 -1 0 8 3 12 6 8 9 -9 84 31 91 48 3 8 9 12 14 9 5 -3 9 0 9 7 0 7 3 9 7 6 3 -4 13 2 21 14 8 11 20 18 28 15 8 -3 14 -1 14 5 0 6 5 7 10 4 6 -3 10 -1 10 6 0 7 3 10 6 7 3 -4 14 2 25 13 14 14 27 17 44 13 14 -3 32 -1 40 6 11 9 22 8 49 -5 20 -10 36 -21 36 -26 0 -14 28 -11 34 4 3 8 11 5 25 -11 13 -15 66 -39 153 -68 148 -49 153 -50 144 -28 -3 8 -2 12 4 9 6 -3 10 -13 10 -21 0 -8 7 -14 15 -14 8 0 15 5 15 10 0 18 22 11 27 -9 6 -22 51 -37 66 -22 5 5 16 7 23 4 9 -3 14 2 14 16 0 15 -10 23 -42 32 -24 6 -52 15 -63 20 -56 24 -321 109 -341 109 -12 0 -26 5 -29 10 -3 6 -28 10 -56 10 -27 0 -49 5 -49 10 0 6 -27 10 -60 10 -47 0 -60 -3 -60 -15z"></path><path id="pGIN5nwWL" d="M11300 15462 c0 -14 8 -18 33 -18 24 0 32 -4 31 -16 -1 -11 21 -27 68 -48 58 -27 72 -30 80 -19 7 10 9 8 5 -8 -4 -16 2 -24 24 -33 15 -7 33 -9 40 -4 8 5 10 2 6 -8 -4 -11 6 -21 34 -33 22 -10 42 -16 45 -12 3 3 21 -1 40 -9 33 -14 34 -14 34 8 0 19 -25 37 -147 105 -175 97 -211 113 -258 113 -27 0 -35 -4 -35 -18z"></path><path id="ptHWsmpNg" d="M13012 15460 c7 -11 18 -20 25 -20 7 0 13 -7 13 -15 0 -8 -5 -15 -11 -15 -8 0 -7 -5 2 -16 7 -8 21 -13 31 -11 10 3 24 -2 31 -11 6 -10 20 -23 30 -31 15 -12 17 -10 17 23 0 29 -4 36 -19 36 -12 0 -21 9 -25 25 -4 16 -13 25 -26 25 -11 0 -20 7 -20 15 0 10 -10 15 -30 15 -28 0 -29 -2 -18 -20z"></path><path id="pN0nv9Pis" d="M11010 15401 c-63 -21 -122 -40 -130 -43 -8 -4 -24 -8 -35 -11 -11 -3 -45 -15 -75 -27 -30 -11 -87 -32 -127 -45 -105 -35 -113 -40 -113 -79 0 -33 1 -33 53 -40 83 -10 107 -8 107 9 0 8 -7 16 -15 16 -8 1 -19 3 -25 4 -5 1 -19 3 -30 4 -11 0 -20 8 -20 17 0 10 6 14 14 11 8 -3 16 -1 18 5 2 6 18 11 36 12 18 0 32 4 32 8 0 4 7 5 15 2 10 -4 15 0 15 11 0 14 3 15 15 5 10 -8 15 -9 15 -2 0 6 7 9 15 6 8 -4 15 -1 15 5 0 6 7 8 17 4 13 -5 15 -2 10 12 -7 16 -5 16 9 4 14 -11 18 -11 21 -1 3 6 9 10 14 6 5 -3 9 0 9 6 0 7 7 10 15 6 8 -3 15 -1 15 5 0 6 7 9 15 5 9 -3 15 0 15 8 0 9 10 13 30 12 17 -1 30 2 30 7 0 4 9 5 20 2 12 -4 20 -2 20 5 0 7 6 10 14 7 8 -3 17 2 21 11 5 13 8 14 15 3 7 -12 11 -12 24 2 9 9 32 21 51 28 45 17 46 39 3 38 -18 -1 -85 -18 -148 -38z"></path><path id="p5EREf9dE" d="M5157 15396 c-15 -14 -36 -30 -45 -35 -27 -14 -26 -51 1 -51 32 0 79 54 75 86 l-3 26 -28 -26z"></path><path id="pcRlMSdKq" d="M14500 15104 c0 -15 10 -53 21 -85 18 -48 26 -59 44 -59 18 0 21 4 18 25 -6 30 19 59 36 42 8 -8 11 -3 11 19 0 43 -45 84 -93 84 -33 0 -37 -3 -37 -26z"></path><path id="pfdAMUlb9" d="M6624 15086 c-10 -42 -1 -71 25 -74 44 -7 91 7 91 27 0 15 -6 18 -36 14 -35 -4 -36 -3 -32 27 4 26 1 30 -19 30 -16 0 -24 -7 -29 -24z"></path><path id="pH8ffk0Me" d="M9715 14979 c-210 -21 -474 -79 -705 -155 -41 -14 -84 -29 -95 -33 -11 -5 -51 -21 -90 -36 -94 -38 -417 -197 -435 -215 -3 -3 -18 -12 -35 -20 -24 -13 -31 -23 -33 -53 l-3 -37 69 0 c124 0 222 12 222 26 0 14 -15 18 -60 15 -147 -10 -167 -7 -123 16 16 9 80 19 153 24 69 5 157 16 195 24 274 59 481 68 1335 62 645 -4 717 -6 845 -25 146 -22 255 -43 315 -63 19 -6 82 -12 140 -13 58 -2 113 -6 122 -11 33 -13 8 -25 -40 -18 -61 10 -139 10 -147 1 -4 -4 -5 -14 -2 -23 5 -13 32 -15 177 -15 l170 0 0 33 c0 37 17 27 -285 182 -133 68 -306 141 -405 171 -221 66 -306 89 -440 119 -85 18 -207 39 -270 44 -132 12 -457 12 -575 0z"></path><path id="pd7Frb0vr" d="M14341 14843 c12 -32 -3 -45 -38 -32 -20 7 -23 5 -23 -15 0 -26 21 -36 78 -36 31 0 32 2 32 39 0 55 -8 71 -36 71 -21 0 -23 -2 -13 -27z"></path><path id="pk3OuEIUs" d="M5820 14849 c0 -6 -7 -8 -17 -5 -14 6 -53 -22 -53 -39 0 -9 39 -6 80 7 47 15 57 48 15 48 -14 0 -25 -5 -25 -11z"></path><path id="pRyZFmu2x" d="M5633 14795 c2 -27 6 -30 40 -33 31 -3 37 0 37 16 0 14 -7 19 -30 20 -17 0 -28 -4 -25 -9 4 -5 2 -9 -4 -9 -5 0 -12 10 -14 23 -4 15 -5 12 -4 -8z"></path><path id="pI1qDHCTO" d="M12750 14765 c0 -28 4 -36 24 -41 13 -3 26 -14 29 -25 4 -15 14 -19 44 -19 l38 1 -36 32 c-30 26 -34 34 -23 45 7 6 18 12 24 12 5 0 10 7 10 15 0 12 -13 15 -55 15 l-55 0 0 -35z"></path><path id="pnYXmp0rk" d="M13160 14784 c0 -13 8 -19 26 -21 15 0 30 -7 34 -13 5 -8 15 -10 26 -5 11 4 31 7 47 6 21 -2 27 2 27 18 0 14 -6 21 -19 21 -10 0 -46 3 -80 6 -55 6 -61 5 -61 -12z"></path><path id="p1DLYYeK1W" d="M7560 14767 c0 -20 4 -23 35 -19 21 3 35 0 35 -7 0 -6 7 -11 15 -11 8 0 15 4 15 8 0 5 10 8 22 8 13 -1 24 6 26 15 2 12 -8 18 -44 23 -86 11 -104 9 -104 -17z"></path><path id="pD5mPZYnQ" d="M12240 14761 c0 -14 9 -20 35 -23 19 -2 35 0 35 4 0 4 7 8 15 8 8 0 15 7 15 15 0 11 -12 15 -50 15 -42 0 -50 -3 -50 -19z"></path><path id="p1AlZqzV37" d="M7940 14713 c0 -6 15 -18 33 -26 37 -18 62 -52 46 -63 -6 -3 -13 -3 -16 0 -8 8 -43 -13 -43 -26 0 -7 18 -9 54 -4 81 9 86 13 86 57 0 34 -4 41 -27 50 -41 16 -133 24 -133 12z"></path><path id="pwn8uCJSI" d="M11920 14707 c-42 -11 -45 -14 -48 -50 -3 -35 -1 -39 35 -53 47 -20 153 -31 153 -16 0 8 -21 23 -40 26 -3 1 -9 4 -15 7 -5 4 -22 9 -37 13 -28 6 -37 29 -18 41 6 3 10 0 10 -7 0 -9 2 -10 8 -1 4 6 20 15 35 18 15 4 27 13 27 21 0 17 -46 17 -110 1z"></path><path id="pIR8f7oWF" d="M13710 14690 c0 -5 4 -10 8 -10 5 0 18 -10 31 -21 19 -18 27 -20 47 -10 16 7 24 7 24 0 0 -6 4 -7 10 -4 6 3 7 -1 4 -9 -4 -11 0 -16 10 -16 9 0 16 4 16 9 0 8 21 8 40 1 3 -1 8 -2 13 -1 4 0 7 -6 7 -14 0 -16 43 -31 59 -20 6 3 11 1 11 -4 0 -6 7 -11 15 -11 8 0 15 5 15 10 0 17 28 11 34 -8 9 -26 175 -80 187 -61 7 11 9 10 9 -3 0 -22 109 -56 120 -37 9 14 30 3 30 -16 0 -16 42 -28 66 -18 14 5 16 3 11 -11 -6 -15 -3 -17 12 -13 13 3 23 -3 32 -19 17 -33 29 -30 29 6 0 57 -20 67 -320 166 -74 24 -145 44 -157 44 -12 0 -24 4 -28 9 -3 5 -31 15 -63 22 -31 6 -87 20 -123 30 -72 21 -149 25 -149 9z"></path><path id="pfYwxdG45" d="M6115 14670 c-3 -5 -15 -10 -26 -10 -12 0 -19 -7 -19 -20 0 -20 21 -23 49 -6 8 5 16 3 22 -5 6 -9 9 -10 9 -2 0 6 9 15 20 18 11 3 20 13 20 21 0 16 -65 20 -75 4z"></path><path id="pM9dbXLU5" d="M7361 14611 c-31 -37 -41 -57 -41 -85 0 -36 0 -36 43 -36 60 0 87 10 87 30 0 14 -7 17 -35 14 -37 -3 -44 6 -20 26 8 7 15 17 15 22 0 5 12 25 26 44 l26 34 -30 0 c-24 0 -39 -10 -71 -49z"></path><path id="pzgIoDdmo" d="M4978 14608 c-10 -12 -18 -28 -18 -36 0 -8 -11 -23 -25 -34 -19 -15 -25 -29 -25 -59 0 -37 1 -39 33 -39 49 0 117 40 117 69 0 18 -4 22 -17 15 -10 -4 -30 -8 -44 -9 -14 -1 -32 -5 -39 -10 -7 -5 -5 4 6 18 10 15 25 27 32 27 6 0 12 9 12 20 0 11 4 20 9 20 5 0 11 9 14 20 7 28 -32 27 -55 -2z"></path><path id="pEMIDwaeU" d="M5883 14609 c-18 -5 -33 -14 -33 -19 0 -6 -11 -10 -24 -10 -43 0 -86 -21 -86 -41 0 -17 6 -19 38 -17 20 2 46 11 57 21 12 12 30 17 48 14 15 -2 27 1 27 6 0 5 7 7 15 3 8 -3 15 -2 15 3 0 4 11 13 25 19 14 6 25 16 25 22 0 12 -63 12 -107 -1z"></path><path id="p1BUqYSESD" d="M5493 14473 c-7 -2 -13 -19 -13 -36 0 -19 3 -27 8 -20 4 7 19 14 32 15 25 3 60 26 60 40 0 9 -67 10 -87 1z"></path><path id="p7fUnuORQ" d="M7722 14141 c-95 -69 -193 -224 -229 -361 -23 -89 -22 -310 1 -399 29 -109 45 -141 71 -141 22 0 23 2 12 36 -10 32 -8 42 18 91 112 214 518 437 1080 592 77 22 178 50 225 64 47 14 146 37 220 52 74 15 137 32 138 36 2 5 13 9 25 9 36 0 67 12 67 25 0 17 -294 25 -996 25 l-591 0 -41 -29z"></path><path id="pXP5urEkN" d="M10885 14144 c-28 -30 -37 -96 -11 -75 12 10 20 9 38 -3 13 -8 64 -22 114 -30 212 -37 615 -173 887 -300 225 -105 341 -189 417 -303 28 -42 54 -89 57 -105 3 -15 12 -28 19 -28 8 0 11 -6 8 -15 -4 -10 0 -15 14 -15 61 0 97 311 58 495 -25 113 -94 243 -174 323 -34 34 -74 67 -88 72 -15 6 -277 10 -670 10 l-645 0 -24 -26z"></path><path id="phPbYwufu" d="M12615 14118 c4 -29 9 -54 10 -56 2 -2 16 -2 31 0 l28 3 -33 33 c-19 18 -32 35 -29 37 7 7 48 -7 48 -16 0 -5 11 -9 25 -9 14 0 25 5 25 10 0 6 7 10 15 10 8 0 15 6 15 14 0 9 -18 15 -52 20 -95 11 -91 13 -83 -46z"></path><path id="p6v09X82o" d="M5060 14138 c-8 -12 -23 -29 -32 -39 -9 -10 -12 -19 -7 -21 13 -4 -28 -88 -44 -88 -9 0 -9 -2 0 -8 7 -5 9 -13 3 -21 -4 -8 -6 -20 -3 -27 2 -6 -1 -15 -6 -19 -6 -3 -9 -10 -6 -15 3 -5 -7 -18 -21 -29 -22 -17 -24 -21 -8 -21 14 0 15 -3 6 -12 -19 -19 -15 -48 7 -48 14 0 23 16 40 66 12 36 30 83 41 104 11 22 20 51 20 65 0 14 4 25 8 25 13 0 32 48 32 80 0 35 -10 38 -30 8z"></path><path id="p1FHSynr4d" d="M10270 14145 c0 -8 7 -15 15 -15 8 0 15 -4 15 -9 0 -5 14 -12 31 -16 l31 -7 -34 -29 -33 -28 37 -1 c20 0 38 3 40 8 2 4 17 15 33 24 23 13 31 25 33 52 l3 36 -85 0 c-70 0 -86 -3 -86 -15z"></path><path id="pQnGi1RHm" d="M10210 13990 c-14 -11 -30 -20 -37 -20 -7 0 -29 -16 -50 -35 l-38 -35 38 0 c20 0 37 5 37 10 0 6 7 10 15 10 9 0 18 7 21 15 4 8 15 15 25 15 14 0 19 7 19 30 0 35 2 35 -30 10z"></path><path id="ps9uxSn7E" d="M5723 13951 c-31 -26 -29 -31 10 -31 51 0 77 11 77 31 0 26 -57 25 -87 0z"></path><path id="pSBMTLsWn" d="M14410 13873 c0 -14 11 -23 39 -31 46 -14 91 -16 91 -3 0 8 -23 21 -36 20 -4 0 -10 4 -14 11 -4 6 -23 13 -43 17 -32 5 -37 3 -37 -14z"></path><path id="pykfvmFxk" d="M13672 13840 c7 -11 16 -20 19 -20 14 0 19 -34 7 -43 -9 -6 -6 -7 10 -4 12 3 22 2 22 -1 0 -9 46 -62 54 -62 16 0 4 61 -16 84 -13 13 -30 34 -38 45 -9 13 -25 21 -42 21 -26 0 -27 -2 -16 -20z"></path><path id="pFctlkPDh" d="M14763 13815 c8 -27 8 -38 -2 -48 -8 -8 -14 -9 -19 -1 -4 6 -17 13 -29 16 -19 5 -23 2 -23 -18 0 -17 6 -24 20 -24 11 0 20 -5 20 -11 0 -6 16 -9 38 -7 35 3 37 5 40 42 5 60 -5 86 -32 86 -23 0 -24 -2 -13 -35z"></path><path id="p1F0vzKxcH" d="M5176 13808 c-3 -13 -6 -38 -6 -55 0 -32 1 -33 44 -33 59 0 76 8 76 34 0 18 -6 21 -37 21 -36 0 -38 2 -35 28 3 21 -1 27 -16 27 -12 0 -22 -9 -26 -22z"></path><path id="pinIlFXMP" d="M14077 13733 c-12 -11 -7 -67 7 -85 7 -10 23 -18 34 -18 16 0 20 6 19 28 -2 25 1 27 31 24 26 -3 32 0 32 15 0 29 -101 58 -123 36z"></path><path id="pvxwfdEHf" d="M5748 13697 c-65 -26 -78 -34 -78 -54 0 -20 3 -22 26 -12 15 5 29 7 32 5 2 -3 11 2 19 10 9 8 21 13 29 10 7 -3 14 0 16 6 3 7 11 6 26 -3 12 -8 20 -20 17 -26 -8 -22 43 -15 55 6 5 11 10 36 10 55 0 35 -1 36 -37 35 -21 0 -73 -14 -115 -32z"></path><path id="p15wT9MUof" d="M4869 13640 c-14 -16 -24 -32 -22 -34 3 -3 -4 -11 -16 -18 -30 -19 -26 -28 13 -28 40 0 66 32 66 80 0 37 -8 37 -41 0z"></path><path id="p13SXhEEy2" d="M9955 13435 c-89 -67 -196 -144 -222 -160 -42 -24 -46 -64 -8 -61 14 0 25 4 25 7 0 13 168 11 364 -5 93 -8 176 -11 184 -8 11 4 14 1 9 -11 -4 -11 1 -18 14 -22 11 -4 23 -4 26 -2 3 3 16 2 29 -3 21 -8 24 -7 24 13 0 17 -12 30 -42 47 -24 13 -91 58 -149 101 -58 42 -121 87 -140 98 -40 25 -87 27 -114 6z"></path><path id="pbz2uK6tQ" d="M4260 13379 c0 -6 -7 -26 -16 -44 -8 -18 -14 -46 -12 -62 2 -22 9 -29 32 -31 44 -5 86 16 86 44 0 21 -4 23 -24 18 -18 -4 -27 -1 -36 15 -6 12 -7 21 -2 21 6 0 12 11 14 25 4 21 1 25 -18 25 -13 0 -24 -5 -24 -11z"></path><path id="pJYcTqN4C" d="M9048 13258 c-16 -5 -28 -14 -28 -19 0 -4 -7 -5 -17 -2 -11 4 -14 3 -9 -5 4 -7 -3 -14 -18 -18 -13 -3 -32 -14 -42 -25 -17 -18 -16 -19 19 -19 25 0 37 5 37 14 0 8 16 16 40 20 40 6 55 21 48 49 -2 11 -9 12 -30 5z"></path><path id="p12qJE2DAF" d="M8858 13157 c-21 -5 -38 -13 -38 -17 0 -11 -77 -50 -84 -43 -6 6 -46 -30 -46 -42 0 -9 69 -5 75 5 3 6 15 10 26 10 11 0 22 6 25 14 3 8 17 16 32 20 39 8 54 21 50 43 -3 17 -7 18 -40 10z"></path><path id="p19oTzHsqZ" d="M15360 13130 c0 -45 46 -130 70 -130 22 0 27 29 8 48 -19 19 -1 26 31 12 16 -6 34 -9 40 -6 15 10 63 -24 57 -40 -6 -15 24 -27 46 -19 8 3 21 -1 28 -9 7 -9 17 -13 23 -9 6 4 8 -2 4 -16 -5 -19 -2 -22 14 -18 15 4 19 2 15 -8 -5 -13 20 -28 40 -24 23 4 36 -2 31 -15 -4 -11 2 -14 22 -14 16 1 33 -2 40 -6 7 -5 11 1 11 16 0 18 -17 33 -79 71 -44 26 -89 47 -100 47 -12 0 -21 5 -21 11 0 20 -33 38 -67 39 -25 0 -33 5 -33 18 -1 27 -95 82 -141 82 -37 0 -39 -2 -39 -30z"></path><path id="p1GJa7rc6q" d="M4523 13130 c-15 -6 -23 -18 -23 -34 0 -23 2 -25 25 -16 17 7 25 6 25 -1 0 -6 7 -9 15 -5 13 4 14 2 5 -14 -9 -17 -8 -20 9 -20 25 0 41 28 41 69 0 29 -2 31 -37 30 -21 0 -48 -4 -60 -9z"></path><path id="p13pmY4VdX" d="M5832 13107 c-7 -18 -12 -48 -12 -66 l0 -34 48 5 c67 7 152 46 152 71 0 17 -5 18 -37 12 -21 -3 -42 -12 -48 -18 -13 -15 -51 -21 -59 -9 -3 5 -1 23 4 41 8 28 7 31 -14 31 -16 0 -25 -9 -34 -33z"></path><path id="paMKNGbeK" d="M10450 13134 c0 -4 9 -15 21 -25 11 -10 18 -23 14 -28 -3 -6 0 -11 9 -11 8 0 17 6 20 13 4 6 4 2 2 -10 -5 -27 31 -43 46 -22 7 10 8 8 5 -9 -5 -19 -2 -22 21 -20 20 2 27 -1 26 -14 -1 -12 6 -16 26 -16 35 1 53 -10 46 -29 -5 -12 -1 -14 15 -10 14 4 19 2 16 -7 -6 -14 108 -74 119 -63 3 3 17 2 30 -3 21 -8 24 -7 24 14 0 20 -15 32 -82 67 -46 24 -89 46 -97 48 -8 1 -23 12 -34 22 -12 10 -29 19 -39 19 -10 0 -18 4 -18 9 0 16 -116 81 -144 81 -14 0 -26 -3 -26 -6z"></path><path id="pDAraH0AE" d="M13077 13084 c-10 -61 -8 -84 7 -84 8 0 17 14 21 30 6 29 45 63 45 40 0 -15 30 -12 30 3 1 7 6 5 14 -5 15 -20 42 -24 48 -7 3 8 10 6 20 -5 20 -19 38 -21 38 -3 0 6 11 0 24 -15 30 -36 36 -35 36 2 0 19 -5 30 -14 30 -8 0 -16 6 -19 14 -5 13 -39 19 -183 32 l-61 6 -6 -38z"></path><path id="pbTYuy4CF" d="M9454 13095 c-4 -8 -13 -15 -21 -15 -14 0 -91 -38 -103 -50 -3 -3 -16 -11 -30 -18 -14 -6 -56 -30 -95 -52 -38 -22 -100 -54 -137 -72 -53 -26 -68 -38 -68 -55 0 -23 18 -23 47 -1 7 5 13 4 16 -4 3 -7 6 -4 6 7 1 15 3 17 10 6 11 -17 31 -6 31 17 0 14 2 14 9 3 11 -17 31 -6 31 17 0 15 2 15 10 2 9 -13 12 -12 25 4 8 11 15 16 15 10 0 -5 5 -1 11 9 6 9 14 15 20 12 5 -4 9 -1 9 5 0 6 5 8 10 5 6 -3 10 -1 10 5 0 6 5 8 10 5 6 -3 10 2 10 12 0 15 2 16 10 3 7 -11 10 -11 10 -2 0 7 5 10 10 7 6 -3 13 1 16 9 3 9 10 13 15 10 5 -3 9 3 9 13 0 15 2 16 10 3 8 -12 10 -12 10 5 0 16 2 17 10 5 8 -12 10 -12 15 2 4 9 12 15 19 12 7 -3 21 7 30 21 10 14 22 25 28 23 11 -4 58 33 58 46 0 14 -71 6 -76 -9z"></path><path id="p17MPh40au" d="M12278 13087 c-15 -14 -35 -27 -45 -29 -10 -2 -18 -8 -18 -13 0 -6 -4 -16 -8 -22 -6 -10 1 -13 25 -13 42 0 81 38 76 76 l-3 26 -27 -25z"></path><path id="prdAQVF8X" d="M6683 13093 c-13 -2 -23 -11 -23 -19 0 -8 -7 -14 -15 -14 -10 0 -15 -10 -15 -31 0 -29 2 -30 18 -18 9 8 22 20 28 28 6 8 16 11 22 7 7 -4 12 -3 12 2 0 6 16 13 35 16 49 10 47 36 -2 35 -21 -1 -48 -4 -60 -6z"></path><path id="pq9PAondi" d="M4400 13060 c-111 -64 -170 -105 -170 -116 0 -8 -9 -14 -20 -14 -40 0 -80 -29 -80 -56 0 -21 3 -25 18 -19 9 4 23 8 30 8 6 0 12 5 12 10 0 6 3 8 6 4 3 -3 16 5 28 19 11 14 31 26 44 27 12 1 22 5 22 10 0 4 5 5 10 2 6 -3 13 1 16 9 3 9 10 14 14 11 4 -3 11 2 14 11 3 8 10 12 16 9 5 -3 10 -1 10 5 0 6 4 9 9 6 5 -3 12 1 15 10 3 8 10 12 16 9 5 -3 10 2 11 12 0 10 3 13 5 6 3 -7 14 -2 30 13 13 14 24 27 24 29 0 8 -64 4 -80 -5z"></path><path id="pIJ6jJGOF" d="M13660 12916 c0 -52 29 -96 63 -96 27 0 28 1 13 22 -22 31 -20 41 5 28 11 -7 32 -9 45 -6 18 5 24 2 24 -10 0 -12 6 -15 21 -11 12 3 32 2 45 -3 21 -8 24 -7 24 13 0 18 -15 29 -88 60 -48 20 -102 37 -119 37 -31 0 -33 -2 -33 -34z"></path><path id="pJ0I2CzTx" d="M6218 12927 c-36 -14 -40 -54 -5 -53 12 1 29 9 39 19 9 10 19 14 22 8 3 -5 -1 -16 -9 -24 -8 -9 -19 -27 -25 -41 -9 -24 -7 -26 15 -26 20 0 27 6 32 30 3 17 9 30 14 30 5 0 9 16 9 35 0 33 -2 35 -32 34 -18 -1 -45 -6 -60 -12z"></path><path id="p4VEnyLqZ" d="M11210 12732 c0 -5 11 -15 24 -22 20 -10 24 -18 19 -41 -3 -18 -1 -29 6 -29 6 0 11 -9 11 -20 0 -28 36 -26 44 3 3 12 6 39 6 60 0 30 -4 37 -20 37 -11 0 -20 5 -20 10 0 6 -16 10 -35 10 -19 0 -35 -4 -35 -8z"></path><path id="p17C3ICI1M" d="M7700 12640 c0 -5 13 -16 29 -25 16 -8 31 -19 33 -24 4 -14 58 -25 58 -13 0 6 9 8 20 5 11 -3 20 -12 20 -20 0 -11 8 -12 35 -7 24 4 35 3 35 -6 0 -21 123 -171 197 -241 136 -128 383 -308 485 -353 63 -28 242 -86 264 -86 13 0 15 8 11 43 -3 23 -7 49 -10 57 -2 8 -8 29 -12 46 -4 18 -31 63 -60 100 -100 129 -191 269 -254 392 l-63 124 -41 -5 c-23 -2 -76 -11 -117 -20 -101 -22 -232 -33 -305 -26 -102 11 -170 22 -175 29 -3 3 -25 14 -50 23 -50 19 -100 22 -100 7z"></path><path id="p47SVnTqO" d="M11438 12538 c-26 -51 -60 -113 -76 -138 -15 -25 -44 -71 -63 -103 -18 -32 -66 -101 -106 -155 -40 -53 -73 -105 -73 -114 0 -9 -4 -27 -9 -40 -13 -32 -21 -57 -20 -64 0 -4 -5 -10 -11 -14 -7 -4 -9 -13 -5 -20 19 -30 205 32 360 120 166 95 435 321 529 443 31 40 56 78 56 84 0 6 14 14 30 18 17 4 30 12 30 18 0 9 -47 12 -167 13 -127 0 -186 5 -243 19 -41 10 -100 20 -130 22 l-56 5 -46 -94z"></path><path id="pEqlH4O0a" d="M14580 12480 c0 -47 29 -110 51 -110 16 0 18 5 13 35 -4 24 -1 40 10 51 9 8 16 11 16 6 0 -5 12 -13 26 -16 17 -5 24 -12 20 -21 -3 -10 3 -13 23 -13 16 1 33 -2 40 -6 7 -5 11 1 11 17 0 20 -11 30 -63 56 -40 20 -77 31 -105 31 -40 0 -42 -1 -42 -30z"></path><path id="pazeHonca" d="M15373 12490 c2 -11 6 -23 10 -26 15 -16 5 -24 -28 -24 -19 0 -35 4 -35 8 0 4 -9 8 -20 9 -14 1 -20 -4 -20 -18 0 -10 7 -19 15 -19 8 0 15 -4 15 -9 0 -14 60 -41 92 -41 25 0 28 4 28 30 0 51 -23 110 -42 110 -12 0 -17 -6 -15 -20z"></path><path id="p13lfyzUkb" d="M4571 12463 c-6 -21 -11 -53 -11 -70 0 -29 3 -33 27 -33 50 0 93 22 93 47 0 27 -8 29 -37 8 -20 -14 -23 -14 -32 3 -6 11 -6 24 0 33 15 25 10 49 -11 49 -14 0 -22 -11 -29 -37z"></path><path id="ptxulFs34" d="M13250 12446 c0 -25 45 -46 98 -46 61 0 24 35 -60 58 -36 10 -38 9 -38 -12z"></path><path id="pvR6UuZ2q" d="M6598 12433 c-14 -2 -32 -11 -38 -19 -7 -8 -21 -14 -31 -14 -10 0 -21 -5 -24 -10 -4 -6 -15 -8 -25 -5 -12 4 -28 -4 -46 -20 -15 -14 -34 -23 -42 -20 -8 3 -20 1 -27 -5 -7 -6 -20 -7 -29 -4 -13 5 -15 14 -10 40 5 29 4 34 -14 34 -23 0 -32 -25 -32 -87 0 -42 1 -43 35 -43 36 0 105 28 105 42 0 4 13 8 28 8 16 0 37 7 48 15 10 8 27 15 37 15 9 0 17 5 17 10 0 6 11 10 24 10 42 0 86 21 86 41 0 19 -6 20 -62 12z"></path><path id="psR5RMbVO" d="M13654 12386 c6 -29 3 -34 -15 -39 -12 -3 -32 -1 -46 4 -39 14 -63 11 -63 -9 0 -23 84 -55 132 -50 38 3 43 17 33 84 -5 36 -10 44 -27 44 -18 0 -19 -4 -14 -34z"></path><path id="pNG5cHKU9" d="M14901 12344 c7 -9 23 -20 36 -25 13 -5 23 -15 23 -24 0 -8 7 -15 15 -15 8 0 15 5 15 11 0 5 5 7 11 4 6 -4 8 -13 5 -20 -3 -10 4 -13 23 -13 34 1 93 -32 87 -48 -6 -15 49 -39 65 -28 8 5 11 2 7 -8 -7 -18 54 -53 78 -44 11 4 15 2 11 -8 -6 -14 68 -55 79 -43 3 3 21 -1 40 -9 33 -14 34 -14 34 8 0 19 -25 37 -150 106 -82 45 -161 82 -175 82 -16 0 -25 6 -25 15 0 9 -12 18 -29 21 -17 4 -32 12 -35 20 -3 8 -15 14 -26 14 -11 0 -20 5 -20 10 0 6 -19 10 -41 10 -37 0 -40 -2 -28 -16z"></path><path id="p14EBfb1Ta" d="M5008 12336 c-10 -7 -18 -18 -18 -25 0 -6 -13 -11 -30 -11 -16 0 -30 -4 -30 -10 0 -5 -6 -10 -14 -10 -14 0 -41 -14 -211 -105 -144 -76 -145 -77 -145 -103 0 -19 4 -23 18 -17 9 4 23 8 30 8 6 0 12 4 12 8 0 4 8 5 18 2 10 -2 29 6 45 21 15 14 27 23 27 20 0 -2 23 7 50 21 28 14 50 31 50 37 0 6 3 8 7 5 3 -4 13 2 21 14 8 11 20 18 28 15 8 -3 14 -1 14 5 0 6 5 7 10 4 6 -3 10 -1 10 5 0 6 5 8 10 5 6 -3 10 2 10 12 0 15 2 16 10 3 9 -13 10 -13 10 0 0 15 68 53 95 53 8 0 15 4 15 9 0 5 5 6 10 3 6 -3 10 1 10 9 0 9 5 16 10 16 6 0 10 5 10 10 0 15 -62 12 -82 -4z"></path><path id="pQrWCK1ZW" d="M7175 12250 c-11 -5 -93 -32 -182 -61 -90 -29 -163 -56 -163 -61 0 -4 -10 -8 -22 -8 -13 0 -53 -12 -90 -26 -49 -19 -68 -31 -68 -44 0 -10 9 -20 20 -23 11 -3 20 -1 20 5 0 6 6 8 14 5 8 -3 17 1 20 10 4 10 14 13 31 9 15 -4 25 -2 25 4 0 6 4 9 9 6 5 -4 11 -2 13 3 1 6 20 17 41 26 28 12 37 12 37 3 0 -10 3 -9 9 1 5 7 14 10 20 7 6 -4 11 -2 11 4 0 7 7 10 15 6 8 -3 15 0 15 6 0 6 3 8 7 5 3 -4 12 1 20 11 10 12 16 14 19 5 4 -10 10 -9 21 3 9 8 24 13 34 11 10 -3 20 2 23 10 4 10 15 14 31 11 14 -3 25 -1 25 4 0 6 7 8 15 4 8 -3 15 -1 15 5 0 6 7 9 15 5 8 -3 15 -2 15 2 0 5 16 8 35 8 19 0 35 -4 35 -8 0 -4 5 -8 10 -8 17 0 12 57 -6 64 -22 8 -65 6 -89 -4z"></path><path id="p1CZg5Das2" d="M12710 12241 c-12 -23 -14 -71 -2 -71 4 0 14 8 21 19 8 11 21 16 32 14 11 -3 19 0 19 6 0 18 18 13 24 -7 8 -23 448 -172 454 -154 2 6 10 8 18 5 9 -3 14 2 14 15 0 11 -8 23 -17 27 -142 56 -410 145 -440 145 -12 0 -25 5 -28 10 -3 6 -24 10 -45 10 -29 0 -42 -5 -50 -19z"></path><path id="pbDYTJWth" d="M14690 12143 c0 -48 11 -73 31 -73 15 0 19 7 19 35 0 19 -4 35 -10 35 -5 0 -10 7 -10 15 0 8 -7 15 -15 15 -10 0 -15 -10 -15 -27z"></path><path id="paCkLwE45" d="M12194 12122 c-11 -11 -30 -25 -43 -31 -12 -7 -20 -15 -17 -19 4 -3 -8 -21 -26 -39 l-32 -33 37 0 c30 0 37 4 37 20 0 11 6 20 13 20 23 0 58 50 55 76 -3 25 -3 25 -24 6z"></path><path id="pHZpYA8Sf" d="M14473 12018 c3 -13 9 -33 12 -45 5 -15 3 -23 -4 -23 -7 0 -9 5 -6 10 5 9 -23 15 -47 11 -5 0 -8 3 -8 8 0 5 -9 11 -20 14 -16 4 -20 0 -20 -17 0 -27 46 -56 88 -56 26 0 30 4 36 38 11 67 8 82 -15 82 -17 0 -20 -5 -16 -22z"></path><path id="pR0hlyHVS" d="M3392 11898 c-6 -13 -14 -33 -17 -45 -4 -13 -11 -23 -16 -23 -5 0 -9 -4 -9 -10 0 -5 7 -10 15 -10 8 0 15 -4 15 -9 0 -5 -9 -7 -20 -4 -11 3 -20 0 -20 -6 0 -6 7 -11 15 -11 18 0 21 -45 3 -56 -7 -4 -8 -3 -4 4 5 8 1 10 -10 5 -15 -5 -15 -7 0 -15 9 -5 16 -18 16 -29 0 -11 -4 -18 -8 -15 -4 2 -14 0 -22 -6 -12 -8 -12 -9 3 -4 24 8 22 -19 -3 -44 -16 -16 -17 -20 -5 -20 8 0 15 -7 15 -16 0 -9 7 -14 18 -12 14 3 18 19 25 83 4 44 14 100 22 124 16 48 20 141 7 141 -5 0 -14 -10 -20 -22z"></path><path id="puTD1TFmE" d="M4092 11798 c-7 -7 -12 -23 -12 -37 l0 -24 28 24 c15 13 21 17 15 9 -17 -19 -16 -30 3 -30 11 0 14 -5 9 -17 -4 -10 -9 -27 -11 -38 -2 -11 -11 -26 -21 -32 -15 -12 -15 -13 0 -13 10 0 14 -5 11 -15 -4 -10 0 -15 14 -15 17 0 22 8 27 38 3 20 10 51 15 68 6 17 10 45 10 62 0 30 -2 32 -38 32 -21 0 -43 -5 -50 -12z"></path><path id="psWf2eM3m" d="M9238 11700 c-16 -9 -25 -20 -20 -24 4 -4 0 -13 -8 -19 -8 -7 -21 -20 -29 -29 -12 -16 -11 -18 18 -18 21 0 31 5 31 15 0 8 7 15 15 15 15 0 29 38 23 63 -2 12 -8 11 -30 -3z"></path><path id="p124CzR2wr" d="M9870 11699 c-87 -11 -236 -55 -280 -82 -141 -85 -220 -179 -220 -261 l0 -49 48 7 c26 3 166 11 312 17 247 10 517 8 773 -8 l107 -6 0 38 c0 46 -55 141 -106 182 -19 15 -42 34 -49 41 -30 27 -185 91 -256 105 -98 20 -249 27 -329 16z"></path><path id="p3kV8TWV9" d="M14270 11611 c0 -5 16 -16 36 -26 21 -10 33 -22 31 -30 -3 -7 14 -21 44 -36 43 -20 52 -21 60 -9 6 11 9 12 9 2 0 -7 5 -10 12 -6 7 5 9 0 6 -14 -5 -17 3 -24 43 -42 27 -11 55 -18 61 -14 7 5 9 2 5 -8 -7 -19 44 -45 64 -33 7 5 10 3 7 -6 -6 -18 107 -82 130 -75 20 6 57 -19 48 -32 -6 -10 38 -31 64 -30 8 0 23 -3 33 -7 13 -6 17 -2 17 17 0 19 -11 31 -49 51 -27 15 -53 27 -59 27 -6 0 -23 11 -38 25 -15 14 -31 25 -35 25 -4 0 -32 14 -61 31 -29 18 -82 47 -118 67 -36 19 -97 52 -137 73 -39 22 -78 39 -87 39 -9 0 -16 5 -16 10 0 6 -16 10 -35 10 -19 0 -35 -4 -35 -9z"></path><path id="pEQIblorQ" d="M15070 11576 c0 -19 12 -31 55 -55 30 -17 64 -31 75 -31 11 0 20 -7 20 -15 0 -8 11 -17 25 -21 14 -3 25 -10 25 -15 0 -5 16 -9 37 -9 35 0 36 0 18 20 -10 11 -24 20 -30 20 -7 0 -15 7 -19 15 -3 8 -13 15 -22 15 -9 0 -33 13 -53 29 -39 30 -65 45 -105 61 -23 9 -26 7 -26 -14z"></path><path id="pOwgeqI11" d="M5593 11572 c-20 -9 -33 -23 -33 -34 0 -13 -8 -18 -30 -18 -36 0 -160 -59 -160 -77 0 -7 -9 -13 -19 -13 -29 0 -51 -11 -51 -25 0 -7 -16 -16 -35 -19 -19 -4 -38 -13 -42 -20 -5 -7 -25 -19 -46 -26 -21 -6 -41 -18 -44 -26 -3 -8 -13 -14 -22 -14 -25 -1 -51 -25 -51 -49 0 -20 1 -21 34 -7 19 8 37 12 40 8 3 -3 6 2 6 11 0 15 17 22 43 18 4 0 7 4 7 10 0 5 5 7 10 4 6 -3 10 2 10 12 0 15 2 16 10 3 8 -13 10 -12 10 3 0 15 17 22 43 18 4 0 7 7 7 17 0 14 2 15 10 2 8 -13 10 -13 10 1 0 18 26 33 41 23 5 -3 9 0 9 6 0 6 5 8 10 5 6 -3 10 0 10 8 0 16 27 30 41 21 5 -3 9 0 9 6 0 6 5 8 10 5 6 -3 10 -1 10 5 0 6 5 8 10 5 6 -3 10 -1 10 5 0 6 5 8 10 5 6 -3 10 -1 10 5 0 6 5 8 10 5 6 -3 10 -1 10 5 0 6 4 9 9 6 5 -3 11 1 14 9 7 18 84 58 97 50 6 -3 10 -1 10 6 0 7 3 10 6 7 6 -6 54 35 54 46 0 11 -65 4 -97 -12z"></path><path id="pwIW3vJMq" d="M11456 11534 c-21 -8 -46 -23 -56 -34 -9 -11 -20 -16 -24 -12 -4 4 -13 0 -19 -8 -7 -8 -24 -21 -39 -29 -38 -19 -35 -31 7 -31 19 0 35 5 35 10 0 6 7 10 15 10 14 0 101 44 118 60 5 4 7 17 5 27 -3 19 -5 19 -42 7z"></path><path id="pFoO5xaVr" d="M3326 11495 c-4 -14 -13 -28 -22 -32 -13 -5 -13 -7 1 -17 19 -13 10 -46 -11 -46 -18 0 -18 -10 2 -24 18 -13 9 -46 -12 -46 -8 0 -14 -10 -14 -26 0 -18 4 -24 13 -21 10 4 13 -2 9 -19 -2 -14 -11 -24 -21 -24 -14 0 -14 -2 -1 -10 13 -9 13 -10 0 -10 -10 0 -11 -3 -4 -8 6 -4 14 -19 18 -34 5 -24 3 -28 -14 -28 -11 0 -20 -7 -20 -15 0 -8 7 -15 16 -15 13 0 15 -7 10 -31 -3 -17 -6 -35 -6 -40 0 -5 -7 -9 -15 -9 -8 0 -15 -4 -15 -10 0 -5 6 -10 13 -10 20 0 9 -80 -12 -80 -15 -1 -15 -1 0 -10 12 -7 15 -21 13 -51 -2 -23 -6 -45 -9 -48 -3 -3 -24 -5 -45 -4 -32 2 -40 -2 -40 -16 0 -22 39 -41 85 -41 39 0 36 -11 55 205 6 66 13 138 16 160 16 118 44 352 44 368 0 26 -27 20 -34 -8z"></path><path id="p192LLtlLF" d="M8098 11357 c15 -18 1 -32 -45 -42 -19 -4 -33 -13 -33 -21 0 -15 38 -18 103 -7 37 6 38 7 35 42 -3 33 -6 36 -37 39 -29 3 -33 1 -23 -11z"></path><path id="p2ncGL0HF" d="M11833 11363 c-7 -2 -13 -19 -13 -38 0 -28 4 -33 31 -39 17 -3 47 -6 65 -6 47 0 46 27 -1 36 -36 6 -44 21 -23 42 9 9 5 12 -17 11 -17 0 -36 -3 -42 -6z"></path><path id="pR3D2gXcV" d="M4297 11323 c-4 -3 -7 -33 -7 -65 l0 -58 39 0 c22 0 46 7 55 15 8 8 19 15 25 15 6 0 11 14 11 31 l0 30 -30 -21 c-17 -12 -37 -19 -45 -16 -7 2 -16 0 -19 -7 -2 -7 -5 -2 -5 10 -1 12 3 24 8 27 13 8 1 46 -13 46 -7 0 -16 -3 -19 -7z"></path><path id="prTmemccu" d="M9845 11134 c-501 -31 -851 -131 -1195 -342 -19 -12 -41 -25 -49 -29 -21 -10 -126 -81 -196 -133 -147 -108 -299 -272 -414 -445 -134 -203 -282 -547 -298 -692 -10 -88 13 -69 88 72 21 39 59 97 86 129 352 431 612 652 985 836 238 117 467 188 778 241 116 20 170 23 390 24 222 0 271 -3 375 -23 439 -81 795 -228 1094 -452 180 -134 296 -246 490 -470 111 -128 164 -198 208 -281 21 -38 44 -69 51 -69 6 0 12 -4 12 -9 0 -5 -6 -12 -12 -14 -9 -4 -7 -6 3 -6 9 -1 21 -12 27 -26 28 -62 42 2 21 95 -20 89 -111 327 -174 456 -118 239 -315 477 -529 638 -28 21 -53 41 -56 45 -9 12 -223 147 -300 189 -203 110 -526 210 -805 247 -116 15 -457 27 -580 19z"></path><path id="pLlNFGk7o" d="M6603 10909 c-41 -19 -64 -39 -44 -39 6 0 8 -7 5 -15 -9 -23 27 -18 59 9 19 15 28 31 25 44 -3 21 -3 21 -45 1z"></path><path id="pznPIBZQ2" d="M16918 10869 c-6 -4 -18 -5 -26 -1 -10 3 -13 1 -8 -7 6 -9 0 -10 -20 -5 -18 5 -25 3 -21 -3 4 -6 0 -13 -8 -17 -8 -3 -15 -10 -15 -16 0 -15 54 -12 86 5 16 8 37 15 47 15 10 0 17 8 17 18 0 18 -30 24 -52 11z"></path><path id="pSiCJ0Kqa" d="M16326 10848 c2 -13 6 -36 9 -53 2 -16 2 -23 -1 -14 -2 8 -21 22 -42 30 -20 7 -40 15 -44 17 -5 2 -8 -8 -8 -22 0 -18 8 -30 25 -38 14 -6 25 -15 25 -20 0 -4 15 -8 34 -8 l34 0 1 65 c0 56 -2 65 -18 65 -13 0 -17 -6 -15 -22z"></path><path id="p1CClzKkei" d="M3616 10813 c-12 -77 -10 -83 31 -83 49 0 113 43 113 77 0 13 -3 23 -7 21 -53 -25 -69 -34 -75 -43 -11 -15 -19 0 -20 34 -2 47 -34 42 -42 -6z"></path><path id="pPzUovz6A" d="M15758 10699 c18 -16 30 -34 27 -39 -3 -5 8 -8 25 -7 67 5 18 77 -52 77 l-33 -1 33 -30z"></path><path id="pSkXwxix0" d="M4162 10690 c-12 -11 -26 -20 -32 -20 -5 0 -10 -7 -10 -15 0 -8 -9 -15 -20 -15 -11 0 -20 -4 -20 -10 0 -5 -6 -10 -12 -10 -7 0 -26 -11 -42 -25 -16 -14 -33 -25 -38 -25 -4 0 -8 -12 -8 -26 0 -21 3 -25 18 -19 9 4 23 8 30 8 6 0 12 7 12 15 0 7 6 12 12 10 7 -3 21 6 32 19 10 13 24 22 31 19 7 -2 15 5 18 16 4 14 11 19 21 15 10 -4 16 -1 16 9 0 10 6 14 14 11 8 -3 17 1 20 9 3 9 9 13 14 10 4 -2 12 7 19 20 11 23 9 24 -21 24 -18 0 -41 -9 -54 -20z"></path><path id="pdk4zJBiH" d="M17710 10611 c0 -17 3 -31 8 -31 4 0 12 -10 17 -22 9 -21 65 -40 65 -23 0 21 -30 60 -73 94 -15 12 -17 10 -17 -18z"></path><path id="p11LNTs0FV" d="M15894 10611 c10 -11 15 -24 12 -30 -4 -6 5 -9 24 -8 27 2 30 5 28 27 -3 21 -9 25 -43 28 -39 3 -39 3 -21 -17z"></path><path id="p18TJiM78G" d="M2729 10535 c-67 -17 -121 -46 -172 -94 -75 -70 -137 -203 -137 -293 0 -53 20 -48 48 11 35 76 94 136 172 175 91 45 164 60 272 53 109 -6 176 -36 249 -114 59 -62 88 -123 96 -199 4 -36 10 -54 19 -54 8 0 14 -7 14 -15 0 -24 27 -18 34 8 17 66 -2 201 -41 284 -91 192 -326 293 -554 238z"></path><path id="p131hwnFGH" d="M17005 10537 c-151 -40 -279 -173 -314 -328 -16 -67 -14 -149 3 -149 15 0 26 32 21 61 -2 11 0 17 6 14 5 -4 9 -2 9 4 0 21 123 153 173 186 79 51 153 69 265 62 79 -5 105 -11 158 -37 70 -34 147 -111 179 -178 11 -23 26 -42 33 -42 6 0 12 -7 12 -15 0 -8 -4 -15 -10 -15 -17 0 -11 -18 8 -23 14 -4 14 -5 -3 -6 -15 -1 -17 -3 -7 -10 8 -5 15 -20 15 -35 2 -18 8 -26 21 -26 17 0 18 7 13 108 -5 120 -20 165 -79 254 -44 66 -145 143 -213 164 -68 20 -231 26 -290 11z"></path><path id="p100GMjgRF" d="M3620 10230 c0 -63 2 -70 20 -70 18 0 20 7 20 58 0 32 5 63 12 70 9 9 5 12 -20 12 l-32 0 0 -70z"></path><path id="p1F48kB7ix" d="M17900 10181 c0 -60 13 -121 26 -121 19 0 26 52 13 104 -13 52 -39 64 -39 17z"></path><path id="phX9U8Yor" d="M7485 10118 c-125 -30 -155 -43 -155 -66 0 -22 1 -22 35 -8 26 11 35 12 35 3 0 -8 3 -7 9 2 5 7 15 11 22 9 8 -3 20 2 28 9 11 12 15 11 27 -4 16 -22 1 -35 -88 -83 -59 -32 -142 -116 -183 -185 -58 -98 -56 -217 5 -342 30 -60 108 -143 135 -143 15 0 28 -28 19 -41 -3 -5 4 -9 14 -9 17 0 20 10 26 73 19 202 80 407 177 595 33 64 65 121 70 127 5 5 9 24 9 42 l0 33 -72 -1 c-40 -1 -91 -6 -113 -11z"></path><path id="pDwpH0slL" d="M12320 10095 c0 -20 8 -49 19 -63 32 -46 140 -282 165 -362 35 -108 54 -211 62 -323 6 -85 9 -97 25 -97 14 0 19 8 19 28 1 19 20 47 66 97 83 90 115 155 122 246 4 65 2 75 -31 142 -23 46 -59 95 -98 135 -59 59 -82 73 -216 132 -57 25 -65 35 -31 37 11 1 25 8 29 15 7 10 9 9 9 -4 0 -21 26 -24 33 -5 3 7 6 4 6 -7 1 -14 6 -17 24 -12 12 3 28 6 35 6 6 0 12 8 12 19 0 23 -50 37 -168 47 l-82 7 0 -38z"></path><path id="p8fAXZa0a" d="M10180 9994 c0 -11 34 -33 52 -34 10 0 15 -5 12 -14 -5 -14 48 -42 64 -32 4 3 23 -4 40 -14 l32 -20 0 28 c0 21 -9 32 -40 50 -21 12 -50 22 -64 22 -15 0 -26 5 -26 10 0 6 -16 10 -35 10 -19 0 -35 -3 -35 -6z"></path><path id="phbH6LXI2" d="M9340 9695 c0 -14 15 -19 50 -17 8 0 18 -5 22 -11 6 -9 8 -9 8 1 0 6 7 12 15 12 8 0 15 7 15 15 0 12 -13 15 -55 15 -42 0 -55 -3 -55 -15z"></path><path id="pFcSGFLAN" d="M13048 9503 c0 -10 -1 -26 0 -35 1 -10 -5 -18 -14 -18 -14 0 -14 -2 0 -16 9 -8 16 -22 16 -30 0 -8 7 -14 15 -14 12 0 15 14 15 65 0 51 -3 65 -15 65 -8 0 -16 -8 -17 -17z"></path><path id="pFXjiBkVU" d="M2560 9354 c0 -4 10 -16 23 -28 30 -28 117 -34 117 -7 0 12 -14 21 -45 29 -49 13 -95 16 -95 6z"></path><path id="pWntuevKc" d="M16382 9306 c-18 -20 -37 -36 -42 -36 -5 0 -7 -6 -4 -14 3 -9 -3 -17 -15 -21 -12 -3 -18 -12 -15 -20 3 -8 -6 -20 -23 -29 -15 -8 -21 -16 -13 -16 12 0 11 -3 -3 -11 -9 -6 -15 -14 -12 -18 2 -5 -3 -8 -13 -7 -11 1 -17 -6 -16 -20 1 -12 -4 -21 -10 -20 -6 0 -13 -3 -15 -9 -2 -5 -12 -16 -23 -23 -10 -7 -16 -17 -13 -22 3 -5 -4 -14 -15 -20 -11 -6 -18 -15 -15 -20 3 -5 -4 -15 -16 -23 -14 -11 -17 -16 -7 -20 8 -3 4 -9 -12 -16 -16 -8 -26 -21 -26 -37 -2 -22 2 -25 25 -22 18 2 27 10 29 26 2 12 10 22 18 22 8 0 14 4 14 8 0 4 18 28 40 52 22 25 42 53 45 63 4 9 10 17 13 17 4 0 16 16 26 35 11 19 23 35 28 35 4 0 8 9 8 20 0 11 6 20 14 20 8 0 17 9 21 19 3 11 12 22 20 25 8 3 15 11 15 17 0 7 7 17 16 23 10 8 14 23 12 45 l-3 33 -33 -36z"></path><path id="p1BWbCwhjd" d="M12995 9241 c-8 -17 -25 -37 -37 -45 -12 -9 -18 -16 -13 -16 6 0 -6 -14 -25 -30 -19 -16 -29 -30 -22 -30 8 0 6 -6 -5 -18 -10 -11 -22 -17 -26 -15 -10 6 -38 -17 -33 -26 3 -4 -9 -16 -25 -26 -16 -11 -29 -23 -29 -27 0 -16 66 -8 81 10 9 9 32 31 53 47 58 46 116 132 116 172 0 41 -15 43 -35 4z"></path><path id="pe7Tzw38x" d="M7369 9225 c-1 -8 -3 -19 -4 -25 -1 -5 -3 -14 -4 -20 0 -5 -8 -10 -16 -10 -8 0 -15 -9 -15 -19 0 -10 7 -21 15 -25 8 -3 15 -12 15 -21 0 -28 27 -15 34 16 12 60 7 119 -9 119 -8 0 -16 -7 -16 -15z"></path><path id="po1e2Wph5" d="M10620 9200 c-8 -5 -28 -15 -45 -22 -16 -7 -30 -19 -30 -26 0 -7 -7 -17 -15 -22 -10 -6 -11 -10 -3 -10 7 0 12 -8 11 -17 -4 -56 25 -77 35 -25 8 39 51 82 82 82 22 0 65 -30 65 -45 0 -3 15 -28 33 -55 25 -39 38 -50 59 -50 l27 0 -36 63 c-41 70 -72 107 -90 107 -7 0 -13 5 -13 11 0 6 -7 9 -15 5 -8 -3 -15 -1 -15 4 0 12 -30 12 -50 0z"></path><path id="pmJwQe3Ry" d="M11490 9175 c0 -18 5 -25 20 -25 13 0 20 -7 20 -19 0 -33 11 -51 32 -51 42 0 -4 93 -56 113 -12 5 -16 0 -16 -18z"></path><path id="p1DSbgYE79" d="M11340 9110 c0 -5 -31 -41 -70 -80 -38 -39 -70 -73 -70 -75 0 -3 15 -5 34 -5 27 0 42 9 80 50 37 39 46 56 46 85 0 19 -4 35 -10 35 -5 0 -10 -4 -10 -10z"></path><path id="pjvm1g9iT" d="M7356 9055 c-3 -8 -12 -15 -21 -15 -22 0 -20 -47 3 -53 13 -3 11 -6 -12 -16 -16 -6 -33 -8 -40 -3 -28 22 -46 22 -46 -1 0 -17 9 -25 40 -35 22 -6 53 -12 70 -12 l30 0 0 75 c0 70 -10 95 -24 60z"></path><path id="p19zijsDvC" d="M10542 9022 c4 -16 1 -19 -16 -15 -19 3 -19 3 2 -6 12 -6 25 -17 28 -26 11 -29 25 -15 22 22 -2 28 -8 39 -22 41 -15 3 -18 0 -14 -16z"></path><path id="pesNKSfMn" d="M12590 8995 c0 -33 4 -45 15 -45 8 0 15 -7 15 -15 0 -22 55 -19 107 6 34 16 43 26 43 46 0 20 -3 23 -13 14 -8 -6 -17 -8 -20 -4 -4 3 -7 1 -7 -5 0 -6 -6 -9 -14 -6 -8 3 -17 1 -21 -5 -3 -6 -17 -11 -31 -11 -14 0 -22 -4 -19 -10 3 -5 1 -10 -4 -10 -6 0 -12 9 -12 20 -1 11 -3 25 -4 30 -1 6 -3 17 -4 25 0 8 -8 15 -16 15 -11 0 -15 -12 -15 -45z"></path><path id="ppymwoirr" d="M6740 8980 c0 -6 9 -18 20 -27 23 -20 26 -39 8 -46 -7 -3 -3 -6 10 -6 13 -1 33 -10 45 -22 l22 -20 3 25 c2 15 -4 33 -12 42 -9 8 -16 20 -16 25 0 5 -7 9 -15 9 -8 0 -15 7 -15 15 0 9 -9 15 -25 15 -14 0 -25 -5 -25 -10z"></path><path id="pheWJWelM" d="M13151 8931 c-25 -35 -30 -91 -6 -71 8 7 15 9 15 5 0 -10 60 77 60 88 0 4 -11 7 -24 7 -16 0 -32 -11 -45 -29z"></path><path id="p8D3FC8O1" d="M12316 8855 c-4 -14 -4 -30 -1 -35 4 -6 0 -10 -7 -10 -35 0 -524 -232 -605 -287 -66 -45 -338 -201 -396 -228 -59 -26 -97 -53 -97 -67 0 -5 56 -8 124 -8 101 0 148 5 252 29 71 16 197 43 279 60 238 49 438 90 463 96 l22 5 0 235 c0 194 -2 235 -14 235 -8 0 -17 -11 -20 -25z"></path><path id="piRhWPHr2" d="M7216 8409 c-3 -17 -6 -62 -6 -100 0 -55 3 -69 15 -69 8 0 15 7 15 15 0 28 28 15 35 -15 4 -18 13 -30 22 -30 14 0 15 11 10 75 -4 41 -10 93 -13 115 -6 37 -9 40 -39 40 -28 0 -33 -4 -39 -31z"></path><path id="pgb1Dy7Rb" d="M4300 8368 c0 -21 6 -41 13 -45 8 -4 22 -20 32 -35 11 -18 26 -28 41 -28 20 0 24 -5 24 -33 0 -39 31 -70 66 -65 l24 3 -25 30 c-14 17 -36 42 -50 58 -14 15 -25 31 -25 36 0 5 -22 33 -50 62 l-49 54 -1 -37z"></path><path id="p4NPJHFYW" d="M8537 8216 c-7 -7 -18 -11 -25 -8 -6 2 -12 -3 -12 -12 0 -9 -4 -16 -10 -16 -5 0 -10 -11 -10 -25 0 -18 5 -25 20 -25 11 0 20 6 20 14 0 7 16 21 35 30 19 9 35 23 35 30 0 19 -38 27 -53 12z"></path><path id="p16ANBXtet" d="M7310 8061 c0 -22 -5 -42 -12 -44 -8 -3 -6 -6 4 -6 10 -1 20 -12 24 -26 9 -37 34 -32 34 8 0 68 -12 107 -31 107 -15 0 -19 -8 -19 -39z"></path><path id="p6TK0wZmr" d="M4890 7650 c0 -18 6 -33 15 -36 8 -4 15 -11 15 -18 0 -15 36 -46 55 -46 9 0 15 -10 15 -25 0 -18 5 -25 20 -25 13 0 20 -7 20 -20 0 -11 7 -20 15 -20 8 0 15 -7 15 -15 0 -8 11 -27 25 -42 13 -16 45 -52 71 -80 25 -29 53 -53 60 -53 8 0 14 -9 14 -20 0 -16 7 -20 31 -20 29 0 30 2 18 18 -8 9 -20 21 -26 25 -7 4 -13 14 -13 21 0 7 -38 52 -85 100 -47 48 -85 89 -85 91 0 2 -10 15 -22 28 -40 41 -78 87 -78 93 0 8 -67 74 -75 74 -3 0 -5 -14 -5 -30z"></path><path id="prqIdHljf" d="M9876 7585 c-15 -8 -33 -15 -40 -15 -6 0 -17 -9 -24 -20 -7 -12 -16 -19 -20 -16 -5 3 -13 -4 -20 -15 -11 -17 -9 -19 18 -19 16 0 30 5 30 10 0 6 9 10 19 10 11 0 26 7 35 15 8 8 19 15 25 15 6 0 11 11 11 25 0 29 2 29 -34 10z"></path><path id="pbxsJ4sjM" d="M14956 7529 c-22 -16 -36 -29 -32 -29 13 0 -43 -61 -77 -84 -18 -12 -32 -29 -32 -39 0 -15 -49 -67 -64 -67 -4 0 -7 -9 -7 -20 0 -14 7 -20 21 -20 23 0 55 32 55 55 0 8 8 15 18 15 17 0 62 49 62 68 0 6 9 12 20 15 12 3 20 14 20 26 0 12 6 21 13 21 23 0 49 37 45 64 l-3 25 -39 -30z"></path><path id="pHIgUNMQA" d="M14695 7236 c-16 -11 -31 -27 -33 -35 -4 -17 -41 -51 -55 -51 -6 0 -7 -3 -4 -7 4 -3 2 -12 -4 -20 -9 -10 -6 -13 18 -13 27 0 63 28 63 50 0 6 6 10 13 10 18 0 40 42 35 67 -3 21 -3 21 -33 -1z"></path><path id="p0EaG7n4q" d="M14560 7081 c-35 -23 -38 -51 -5 -51 27 0 39 16 33 48 -3 18 -5 18 -28 3z"></path><path id="p1FIDEukK3" d="M10083 7057 c-22 -8 -33 -18 -33 -30 0 -11 5 -17 13 -14 6 2 18 -2 25 -9 10 -12 10 -14 -2 -14 -8 0 -28 -11 -43 -25 l-28 -24 37 -1 c20 0 43 6 50 13 7 7 31 20 53 29 35 14 40 20 43 52 l3 36 -43 -1 c-24 -1 -58 -7 -75 -12z"></path><path id="pvJN2bOfu" d="M9930 7001 c0 -25 38 -32 63 -11 26 22 21 30 -23 30 -33 0 -40 -3 -40 -19z"></path><path id="phLS3xWdg" d="M8977 6875 c-38 -32 -65 -61 -61 -67 4 -6 1 -9 -7 -6 -7 2 -18 21 -22 41 -11 47 -37 50 -37 5 0 -18 3 -50 6 -70 6 -36 9 -38 44 -38 30 0 41 6 55 27 10 14 35 46 57 69 29 31 39 50 36 69 -3 26 -4 26 -71 -30z"></path><path id="p139p663jo" d="M9370 6781 c0 -5 -10 -11 -22 -13 -17 -2 -24 -11 -26 -32 -3 -24 -1 -28 15 -21 10 4 24 8 31 8 6 0 12 5 12 11 0 6 14 17 30 24 40 18 38 32 -5 32 -19 0 -35 -4 -35 -9z"></path><path id="psUEzo8vc" d="M9704 6742 c-17 -9 -38 -27 -48 -39 -17 -23 -16 -23 14 -23 42 0 80 27 80 56 0 28 -4 28 -46 6z"></path><path id="p19vw9zfv6" d="M14673 6703 c-15 -21 -36 -45 -45 -54 -10 -9 -18 -21 -18 -28 0 -6 -5 -11 -10 -11 -6 0 -33 -24 -60 -52 -35 -37 -50 -61 -50 -81 l0 -28 46 31 c25 18 49 43 55 57 10 27 78 98 94 100 6 0 15 10 21 22 6 11 13 19 15 17 2 -2 11 12 20 30 l16 34 -28 0 c-21 0 -35 -10 -56 -37z"></path><path id="plV1FpLKO" d="M9076 6589 c-15 -12 -26 -30 -26 -45 0 -20 -5 -24 -30 -24 -20 0 -30 -5 -30 -15 0 -8 -9 -15 -20 -15 -16 0 -20 -7 -20 -31 0 -29 2 -30 18 -18 9 8 22 20 28 28 6 8 16 11 22 7 7 -4 12 -1 12 8 0 17 39 48 52 40 4 -3 8 0 8 5 0 6 5 10 11 9 6 -2 22 14 35 35 l24 37 -29 0 c-15 0 -40 -9 -55 -21z"></path><path id="p7FpzfwFU" d="M5900 6541 c0 -21 5 -31 15 -31 8 0 15 -6 15 -13 0 -25 46 -59 76 -55 l29 3 -50 50 c-28 28 -58 56 -67 64 -16 12 -18 11 -18 -18z"></path><path id="pjKdZ4h0O" d="M9135 6259 c-27 -23 -50 -48 -50 -57 0 -9 -14 -25 -30 -37 -30 -20 -35 -26 -35 -45 0 -6 -11 -15 -24 -21 -14 -7 -22 -17 -20 -23 3 -7 -7 -18 -21 -24 -14 -7 -23 -17 -20 -22 3 -6 0 -13 -9 -16 -8 -3 -12 -12 -10 -19 3 -7 -3 -16 -15 -20 -13 -4 -18 -12 -14 -21 4 -10 -2 -17 -16 -21 -11 -3 -18 -9 -16 -14 3 -4 -6 -16 -20 -25 -13 -9 -23 -20 -20 -24 3 -5 -11 -14 -30 -21 -19 -7 -35 -19 -35 -26 0 -17 57 -17 86 0 25 14 74 70 74 85 0 5 7 12 15 16 8 3 15 12 15 21 0 8 4 15 9 15 5 0 20 17 32 38 13 20 29 41 36 45 7 4 13 21 13 37 0 22 5 29 23 32 17 2 23 11 25 36 3 26 8 32 26 32 33 0 88 61 84 94 l-3 27 -50 -42z"></path><path id="p17JgvzUoO" d="M8440 6201 c0 -5 13 -15 29 -22 16 -7 27 -18 24 -26 -3 -8 5 -12 26 -10 25 2 31 6 31 25 0 15 -6 22 -20 22 -11 0 -20 5 -20 10 0 6 -16 10 -35 10 -19 0 -35 -4 -35 -9z"></path><path id="pz2S1hI2N" d="M6450 5985 c0 -28 4 -35 20 -35 11 0 20 -6 20 -12 0 -12 46 -61 133 -143 19 -18 36 -25 54 -23 26 3 23 8 -67 98 -52 53 -110 108 -127 123 l-33 27 0 -35z"></path><path id="pFzQ0179e" d="M9657 5921 c-15 -17 -32 -31 -38 -31 -5 0 -8 -4 -5 -9 13 -21 -27 -34 -99 -32 -68 2 -75 0 -75 -17 0 -16 10 -21 54 -26 62 -8 106 0 106 20 0 9 11 14 30 14 20 0 33 6 37 18 4 9 11 20 16 23 4 3 7 21 5 39 l-3 32 -28 -31z"></path><path id="p7M0TLV8o" d="M13843 5845 c-40 -41 -73 -79 -73 -85 0 -5 -7 -10 -15 -10 -10 0 -15 -10 -15 -30 0 -27 2 -29 19 -21 10 6 21 18 25 27 3 9 12 14 20 11 13 -5 116 90 116 106 0 5 12 24 26 43 l26 34 -28 -1 c-23 0 -45 -17 -101 -74z"></path><path id="puvUv6g7a" d="M8075 5824 c32 -28 37 -37 25 -44 -13 -8 -13 -10 2 -10 9 0 19 6 22 13 4 6 4 2 2 -11 -5 -25 25 -47 51 -38 11 5 13 2 9 -10 -5 -13 -2 -15 15 -11 15 4 19 2 15 -9 -3 -8 1 -14 9 -14 8 0 15 5 15 11 0 5 5 7 10 4 8 -5 8 -11 0 -20 -8 -10 -6 -15 9 -20 12 -3 25 -3 31 0 5 3 20 -1 32 -9 31 -22 38 -20 38 9 0 18 -5 25 -19 25 -10 0 -21 7 -25 15 -3 8 -15 15 -26 15 -11 0 -20 4 -20 9 0 10 -121 91 -137 91 -6 0 -13 9 -16 20 -4 16 -13 20 -44 20 l-38 -1 40 -35z"></path><path id="pu1cE1cJH" d="M11718 5732 c-33 -19 -41 -70 -10 -57 9 4 22 8 27 8 6 1 26 16 45 34 l35 33 -35 0 c-19 0 -47 -8 -62 -18z"></path><path id="pnLnCox9b" d="M13187 5202 c-25 -26 -37 -47 -37 -66 0 -25 2 -27 17 -15 9 8 19 13 22 13 5 -2 40 37 80 89 12 15 11 17 -16 17 -20 0 -40 -11 -66 -38z"></path><path id="pw3VkEwwy" d="M7270 5201 c0 -21 6 -34 18 -38 9 -4 21 -12 25 -20 4 -7 22 -13 38 -13 28 0 29 1 16 21 -8 11 -33 34 -56 50 l-41 31 0 -31z"></path><path id="p1BQSPc03M" d="M12654 5180 c-17 -8 -36 -25 -41 -37 -10 -21 -9 -23 15 -23 38 1 64 24 60 52 -3 22 -4 22 -34 8z"></path><path id="ptGUL3Omn" d="M12993 5019 c-28 -26 -43 -48 -43 -64 0 -14 5 -25 10 -25 6 0 10 6 10 13 0 9 2 9 9 -1 6 -10 18 -1 47 35 73 89 70 83 38 83 -20 0 -43 -13 -71 -41z"></path><path id="p1iVPgeep" d="M7460 5026 c0 -15 18 -39 53 -70 28 -26 68 -63 88 -82 20 -19 39 -34 43 -34 4 0 18 -12 31 -26 16 -18 32 -24 50 -22 l27 3 -34 35 c-71 72 -221 205 -239 212 -15 6 -19 3 -19 -16z"></path><path id="pEvGFBbZg" d="M11810 4410 c-14 -11 -29 -20 -34 -20 -4 0 -17 -11 -28 -25 -11 -14 -25 -25 -31 -25 -7 0 -17 -11 -24 -25 -10 -23 -9 -25 15 -25 41 0 132 78 132 113 0 32 2 32 -30 7z"></path><path id="pR7IzuD9i" d="M8200 4365 c0 -28 32 -65 55 -65 7 0 15 -9 18 -20 4 -15 14 -20 37 -20 29 0 31 2 19 18 -13 16 -60 61 -84 79 -6 4 -18 14 -28 22 -15 12 -17 11 -17 -14z"></path><path id="pz1IghsM5" d="M11655 4270 c-3 -5 -13 -6 -22 -3 -10 4 -14 2 -10 -4 8 -12 -59 -73 -80 -73 -7 0 -13 -5 -13 -10 0 -17 -66 -76 -80 -72 -7 3 -10 0 -7 -5 3 -5 -7 -20 -24 -33 -37 -31 -37 -40 2 -40 22 0 32 5 36 20 3 11 12 20 19 20 8 0 14 5 14 10 0 6 5 10 11 10 7 0 24 12 40 28 15 15 39 36 53 47 14 11 26 30 26 43 0 17 6 22 25 22 20 0 25 5 25 25 0 26 -5 31 -15 15z"></path><path id="pobOQKebo" d="M11418 3596 c-27 -23 -48 -50 -48 -59 0 -11 -8 -17 -23 -17 -29 0 -87 -59 -87 -88 0 -18 -6 -22 -30 -22 -23 0 -30 -4 -30 -20 0 -15 -7 -20 -25 -20 -13 0 -28 -6 -32 -12 -4 -7 -17 -18 -28 -24 -20 -11 -34 -64 -18 -64 5 0 18 7 29 15 12 8 24 11 28 8 3 -3 6 -1 6 6 0 16 61 72 72 65 4 -3 8 1 8 9 0 17 34 49 47 45 5 -2 38 28 75 65 36 37 71 66 77 65 7 -2 28 18 47 45 l36 47 -29 0 c-19 -1 -43 -15 -75 -44z"></path><path id="pOpMHsPhT" d="M9700 3579 c0 -5 -9 -9 -20 -9 -27 0 -70 -21 -64 -31 3 -5 -1 -6 -9 -3 -8 3 -21 -2 -30 -10 -9 -9 -21 -16 -27 -16 -6 0 -29 -19 -51 -42 l-41 -43 26 -3 c18 -2 48 11 94 41 37 24 93 55 125 67 65 27 79 56 27 58 -16 0 -30 -4 -30 -9z"></path><path id="pOGzKbtN1" d="M10780 3510 c-14 -11 -31 -20 -37 -20 -7 0 -13 -7 -13 -15 0 -7 -6 -18 -12 -22 -7 -4 -19 -16 -27 -25 -12 -16 -11 -18 18 -18 21 0 31 5 31 15 0 8 6 15 14 15 28 0 58 35 54 62 l-3 27 -25 -19z"></path><path id="phc8J4Jcn" d="M10530 3396 c0 -40 28 -66 72 -66 35 0 38 2 38 27 0 20 -3 24 -12 15 -10 -10 -43 -1 -58 17 -3 3 -13 12 -22 20 -16 12 -18 11 -18 -13z"></path><path id="phLchaRCC" d="M9310 3385 c0 -36 22 -55 64 -55 32 0 36 3 36 26 0 21 -3 24 -13 16 -10 -9 -23 -5 -50 14 l-37 25 0 -26z"></path><path id="pJlCEfbCT" d="M9859 3256 c-114 -32 -208 -111 -264 -223 -29 -56 -46 -153 -27 -153 14 0 44 49 37 61 -4 5 -2 8 2 7 5 -2 37 25 71 59 110 110 254 159 390 134 73 -13 122 -38 197 -100 26 -22 64 -44 84 -48 20 -5 36 -13 37 -18 2 -19 16 -45 25 -45 17 0 9 63 -13 109 -48 100 -183 198 -302 220 -77 14 -179 13 -237 -3z"></path><path id="pnGZj83D" d="M9600 2589 c0 -23 12 -43 52 -85 44 -45 59 -54 88 -54 l35 0 -65 64 c-36 35 -72 73 -80 85 -20 29 -30 26 -30 -10z"></path></g></g><g id="l2BXxeule4wG3QUPGteTqeR" fill="rgb(43,42,26)" style="transform: none;"><g style="transform: none;"><path id="pPKpF72My" d="M9786 17569 c-480 -22 -1025 -114 -1456 -245 -63 -20 -135 -42 -160 -49 -64 -19 -384 -135 -520 -188 -583 -228 -1205 -592 -1800 -1055 -203 -158 -617 -550 -794 -752 -304 -346 -633 -800 -806 -1110 -344 -615 -566 -1132 -700 -1630 -16 -58 -38 -137 -49 -177 -89 -311 -203 -989 -236 -1413 -11 -135 -15 -152 -33 -144 -270 115 -545 110 -764 -15 -255 -146 -408 -407 -410 -696 0 -148 20 -237 82 -361 104 -207 297 -366 519 -426 96 -27 310 -29 411 -5 l65 16 28 -32 c16 -18 46 -57 67 -87 22 -30 98 -131 169 -225 72 -93 179 -235 238 -315 59 -80 159 -210 222 -288 149 -185 193 -240 359 -451 217 -276 317 -394 577 -686 66 -73 99 -112 278 -320 106 -123 228 -256 367 -400 75 -77 167 -174 205 -215 112 -121 360 -373 531 -540 88 -85 269 -263 404 -395 266 -260 320 -312 480 -455 82 -73 278 -254 384 -355 42 -40 222 -199 271 -240 72 -60 315 -275 405 -360 36 -33 105 -96 154 -140 48 -44 101 -91 116 -105 15 -14 84 -74 155 -135 70 -60 218 -189 328 -285 110 -96 226 -197 259 -225 l59 -50 -8 -100 c-17 -217 11 -346 109 -512 92 -157 225 -272 392 -342 124 -52 194 -64 341 -58 154 5 218 21 343 83 205 103 364 312 423 560 17 73 20 108 16 194 -3 58 -9 114 -13 124 -6 15 14 39 102 124 60 57 154 141 209 185 132 107 278 235 882 777 46 41 115 102 152 135 168 147 757 685 911 831 471 445 1167 1134 1405 1389 386 414 656 713 836 925 26 30 78 91 115 135 171 200 648 788 734 905 35 48 68 91 259 345 58 77 177 233 266 346 88 114 169 219 180 234 l21 28 64 -16 c268 -66 569 9 750 185 216 209 302 501 234 788 -9 36 -38 112 -65 168 -45 92 -61 115 -147 201 -83 82 -111 104 -192 144 -52 26 -129 56 -170 68 -96 26 -244 35 -340 20 -76 -12 -203 -53 -227 -73 -8 -6 -16 -8 -19 -6 -3 3 -14 98 -24 212 -52 554 -173 1150 -344 1701 -181 582 -335 930 -644 1455 -168 285 -490 746 -680 972 -298 355 -782 811 -1058 998 -13 8 -94 67 -181 131 -427 314 -932 603 -1343 769 -575 233 -1037 367 -1574 455 -311 52 -436 63 -851 79 -49 2 -171 -1 -269 -5z m369 -433 c16 -8 73 -33 125 -55 110 -48 106 -46 230 -104 52 -24 129 -59 170 -78 168 -77 370 -179 370 -188 0 -4 -57 -23 -127 -40 -71 -18 -164 -44 -208 -57 -197 -62 -432 -140 -573 -191 -92 -33 -161 -53 -175 -50 -12 3 -92 31 -177 62 -167 62 -489 163 -715 226 -76 22 -143 43 -148 48 -8 8 158 97 288 154 22 10 85 37 140 62 55 24 177 76 270 115 94 40 179 77 190 84 11 7 38 13 60 15 22 2 41 4 42 4 1 1 48 3 105 5 72 1 112 -2 133 -12z m-1185 -93 c0 -5 -44 -26 -98 -47 -53 -22 -161 -72 -239 -112 l-142 -74 -98 25 c-54 14 -108 25 -120 25 -37 0 -26 19 15 26 20 3 75 16 122 29 83 22 135 36 155 40 76 18 244 61 295 75 70 20 110 25 110 13z m2140 -13 c14 -4 79 -20 145 -35 127 -28 339 -80 390 -94 17 -5 43 -12 58 -15 42 -10 25 -22 -39 -29 -31 -3 -89 -13 -129 -23 l-72 -17 -139 72 c-76 40 -171 86 -210 102 -39 16 -80 37 -90 45 -18 14 -16 15 21 9 22 -3 51 -10 65 -15z m-3293 -360 c74 -10 271 -47 302 -56 13 -4 13 -7 0 -19 -13 -13 -156 -101 -384 -238 -125 -74 -308 -195 -399 -260 l-68 -50 -212 11 c-116 7 -257 12 -313 12 -78 0 -101 3 -97 13 4 10 103 70 242 147 15 8 54 30 86 49 296 167 736 401 755 401 5 0 45 -5 88 -10z m4710 -111 c175 -90 470 -252 559 -305 18 -11 88 -53 158 -94 69 -41 125 -78 126 -82 0 -5 -56 -8 -124 -8 -68 0 -216 -5 -330 -11 l-207 -11 -67 44 c-117 78 -172 113 -362 230 -102 63 -225 142 -275 174 -49 32 -109 68 -132 78 -73 32 -69 34 142 65 230 34 259 37 287 30 14 -4 116 -53 225 -110z m-3844 -70 c67 -17 176 -47 242 -66 147 -43 395 -115 530 -155 103 -30 125 -36 138 -37 4 -1 7 -7 7 -13 0 -7 -44 -28 -98 -47 -124 -43 -489 -205 -700 -310 -90 -44 -172 -81 -181 -81 -10 0 -43 9 -73 19 -150 51 -726 181 -808 181 -63 0 -68 14 -19 50 49 35 215 135 324 195 63 34 170 96 265 153 65 39 245 142 248 142 2 0 58 -14 125 -31z m2897 -60 c74 -44 185 -108 245 -142 163 -90 166 -91 251 -143 114 -68 226 -145 221 -150 -2 -3 -51 -12 -108 -20 -235 -35 -638 -123 -779 -171 l-76 -25 -194 92 c-310 147 -659 299 -737 322 -18 5 -33 13 -33 18 0 9 47 26 97 35 17 3 69 18 115 34 149 52 793 229 838 230 15 1 81 -33 160 -80z m-1463 -408 c72 -27 158 -61 190 -74 260 -111 358 -155 493 -217 85 -39 161 -77 168 -84 11 -11 3 -16 -45 -30 -32 -10 -107 -35 -168 -56 -60 -21 -121 -42 -135 -46 -30 -8 -369 -143 -524 -208 l-110 -46 -160 69 c-89 37 -192 80 -231 94 -134 50 -381 135 -499 172 -65 20 -114 41 -110 45 11 11 388 181 544 246 151 63 444 182 450 183 3 1 64 -21 137 -48z m-3217 -261 c0 -5 -9 -14 -20 -20 -46 -24 -143 -115 -227 -212 -153 -175 -236 -302 -293 -447 l-37 -94 -190 -48 c-104 -26 -256 -72 -338 -103 -81 -31 -149 -56 -151 -56 -12 0 4 49 70 212 161 400 241 561 332 672 66 80 87 83 515 95 145 4 281 8 302 9 20 1 37 -2 37 -8z m6757 -10 c196 -11 236 -22 286 -81 37 -43 112 -181 198 -365 76 -161 222 -504 217 -509 -2 -3 -49 11 -104 30 -136 46 -396 118 -576 159 -22 5 -29 15 -43 63 -31 105 -111 241 -234 398 -69 89 -212 231 -273 273 -27 18 -48 37 -48 41 0 10 328 4 577 -9z m-912 -53 c67 -52 256 -220 329 -292 85 -86 176 -204 216 -283 35 -69 38 -87 13 -77 -42 17 -289 27 -547 22 l-279 -6 -98 72 c-195 142 -247 177 -464 307 -121 72 -221 135 -223 140 -3 9 6 12 68 23 14 3 93 19 175 35 158 32 378 70 585 100 139 21 145 20 225 -41z m-5220 33 c180 -22 312 -45 525 -90 80 -17 160 -34 178 -37 17 -3 32 -11 32 -18 0 -6 -28 -27 -62 -45 -116 -60 -446 -275 -598 -389 l-115 -86 -370 -1 c-237 0 -384 -5 -409 -12 -22 -6 -43 -9 -48 -6 -19 12 70 149 178 275 71 84 221 224 324 306 36 28 85 67 110 86 25 20 56 36 70 36 14 0 97 -8 185 -19z m1213 -300 c107 -28 692 -224 692 -231 0 -4 -28 -10 -62 -13 -202 -23 -572 -140 -853 -271 -66 -30 -109 -45 -125 -42 -14 3 -115 28 -225 56 -110 28 -221 54 -247 57 -27 4 -48 10 -48 15 0 5 19 21 43 36 23 14 94 61 157 103 104 70 300 184 470 273 78 41 97 43 198 17z m2684 -16 c218 -110 678 -391 678 -414 0 -6 -14 -10 -31 -10 -41 0 -201 -33 -371 -75 -76 -19 -147 -35 -158 -35 -11 0 -55 17 -98 39 -225 112 -637 246 -823 267 -32 4 -59 10 -59 14 0 4 46 23 103 43 183 63 232 80 252 88 57 23 386 116 418 118 10 1 50 -15 89 -35z m3209 -406 c46 -51 87 -95 90 -98 3 -3 67 -83 143 -178 202 -254 219 -283 144 -239 -24 13 -97 52 -163 85 -66 34 -131 72 -143 85 -13 14 -43 86 -71 168 -27 79 -60 172 -74 207 -14 34 -22 62 -17 62 4 0 45 -42 91 -92z m-9197 45 c-56 -135 -104 -257 -123 -314 -12 -36 -32 -75 -44 -87 -12 -11 -83 -53 -157 -92 -74 -40 -141 -77 -148 -83 -29 -23 -22 6 14 59 45 66 254 318 372 449 45 50 82 93 82 98 0 4 5 7 10 7 6 0 4 -16 -6 -37z m4826 -104 c63 -5 185 -26 270 -44 134 -30 219 -53 440 -119 98 -30 272 -103 405 -171 131 -68 278 -145 282 -148 1 -1 -743 -2 -1652 -2 -1233 0 -1651 3 -1642 11 30 29 371 200 492 249 39 15 79 31 90 36 11 4 54 19 95 33 231 76 495 134 705 155 118 12 384 12 515 0z m-3158 -254 c-49 -46 -113 -116 -143 -155 -29 -39 -63 -72 -74 -74 -11 -2 -59 -9 -106 -15 -215 -28 -430 -140 -658 -345 -40 -36 -81 -66 -91 -66 -45 0 -487 -154 -691 -241 -132 -56 -143 -58 -134 -26 24 79 254 607 280 641 21 28 503 193 680 232 11 3 52 11 90 19 39 8 133 28 210 44 197 42 285 53 485 61 96 4 190 7 208 8 32 2 32 1 -56 -83z m6158 64 c41 -5 93 -12 115 -15 208 -27 591 -120 871 -213 247 -81 253 -85 286 -151 15 -30 39 -84 52 -120 37 -99 130 -327 165 -404 33 -72 40 -112 19 -103 -182 81 -540 211 -758 276 -116 35 -120 38 -195 107 -191 179 -447 303 -669 323 -67 7 -91 13 -98 25 -23 41 -159 194 -204 230 -27 22 -53 43 -59 48 -13 12 381 9 475 -3z m-5575 -14 c22 -3 54 -7 70 -11 369 -70 391 -86 170 -128 -44 -8 -129 -22 -190 -30 -199 -28 -319 -46 -359 -53 l-40 -6 45 53 c24 29 82 84 128 122 69 57 88 68 110 64 14 -3 44 -8 66 -11z m4732 -23 c79 -64 208 -183 211 -197 2 -10 -6 -11 -35 -5 -21 5 -126 20 -233 34 -297 40 -478 82 -454 106 9 9 296 73 404 90 25 4 48 8 52 9 3 0 28 -16 55 -37z m2663 -580 c74 -41 167 -92 205 -113 39 -21 82 -51 97 -66 28 -31 361 -679 356 -694 -2 -5 -20 2 -41 17 -21 14 -97 58 -170 98 -73 40 -194 108 -270 152 l-137 79 -26 85 c-28 91 -132 362 -182 472 -17 36 -28 69 -24 72 3 3 17 -2 31 -11 14 -9 87 -50 161 -91z m-9991 61 c-5 -16 -24 -59 -41 -98 -59 -137 -125 -312 -153 -410 -22 -78 -33 -92 -97 -125 -30 -15 -110 -60 -179 -100 -202 -118 -231 -135 -291 -169 -31 -17 -59 -28 -62 -23 -11 18 227 477 331 636 37 57 45 63 258 187 121 70 226 128 232 128 9 1 10 -6 2 -26z m2249 -95 c-90 -119 -142 -214 -177 -321 -13 -39 -35 -57 -71 -57 -34 0 -94 -35 -132 -78 -46 -51 -57 -71 -83 -156 l-21 -69 -49 -13 c-134 -34 -475 -169 -800 -315 -82 -37 -152 -63 -153 -58 -5 13 120 270 213 437 134 241 292 419 467 524 153 91 362 129 752 137 l78 1 -24 -32z m2306 23 l770 -6 -325 -217 c-837 -558 -1320 -833 -1665 -946 -207 -68 -440 -50 -618 46 -122 66 -230 218 -277 387 -27 99 -29 260 -5 355 34 136 133 291 228 361 l41 29 541 -1 c298 -1 887 -5 1310 -8z m2550 -1 c14 -5 54 -38 88 -72 197 -198 246 -533 118 -794 -147 -297 -426 -407 -776 -306 -181 53 -443 169 -669 297 -230 130 -605 381 -605 404 0 6 71 61 158 123 171 123 323 246 389 314 l42 44 615 0 c374 0 625 -4 640 -10z m726 -4 c121 -4 205 -12 271 -26 265 -55 453 -187 609 -425 71 -109 320 -597 320 -628 0 -13 -7 -12 -43 8 -23 13 -83 40 -132 60 -50 20 -104 42 -121 50 -178 83 -536 218 -673 255 -30 8 -40 16 -44 38 -14 70 -53 149 -96 195 -52 56 -79 72 -138 82 -39 6 -43 10 -59 53 -44 125 -130 282 -174 319 -11 10 -20 20 -20 24 0 4 28 5 63 3 34 -2 141 -6 237 -8z m1660 -604 c447 -192 432 -183 493 -324 20 -48 60 -135 88 -195 79 -168 97 -208 154 -355 51 -130 88 -239 82 -243 -1 -1 -99 49 -217 113 -118 63 -321 165 -450 227 l-234 112 -52 137 c-96 253 -192 458 -292 623 -27 45 -48 84 -45 86 7 7 275 -96 473 -181z m-8710 173 c0 -3 -20 -41 -45 -84 -69 -120 -207 -411 -270 -571 -67 -168 -82 -200 -95 -200 -28 0 -401 -188 -606 -306 -277 -159 -269 -155 -259 -123 56 192 351 857 407 916 24 26 240 123 588 264 268 109 280 113 280 104z m4294 -384 c51 -37 150 -103 221 -146 72 -43 159 -97 195 -120 101 -66 357 -201 503 -266 191 -86 207 -93 207 -99 0 -3 -13 -48 -30 -100 -28 -87 -73 -263 -120 -465 -26 -113 -32 -151 -21 -140 28 30 181 242 210 292 19 32 48 78 63 103 16 25 50 87 76 138 43 86 48 93 72 89 14 -3 59 -12 100 -21 192 -41 388 -36 542 14 229 73 446 262 548 476 22 46 42 95 46 109 3 14 9 27 13 30 13 8 -37 -214 -65 -288 -55 -149 -177 -360 -307 -532 -322 -425 -757 -783 -1192 -979 -114 -51 -259 -106 -282 -106 -6 0 -13 18 -17 41 -14 87 -92 233 -181 336 -102 120 -312 244 -475 282 -125 29 -255 43 -340 36 -351 -29 -591 -157 -781 -415 -51 -69 -119 -221 -119 -266 0 -22 -24 -15 -202 58 -222 91 -452 224 -633 367 -197 155 -433 387 -577 566 -141 177 -304 461 -363 633 -30 89 -65 230 -65 264 0 22 17 -6 33 -56 51 -152 207 -344 370 -455 102 -69 267 -127 407 -142 106 -11 362 15 442 46 13 5 30 -20 84 -125 37 -73 97 -174 133 -225 102 -144 203 -276 208 -272 7 8 -86 420 -122 536 -19 62 -35 124 -35 137 0 20 27 36 213 127 116 57 259 130 317 162 58 32 130 72 160 88 30 16 75 41 100 55 99 53 335 213 484 327 24 18 42 9 180 -94z m5265 -194 c16 -14 201 -126 231 -140 8 -4 68 -40 134 -80 l118 -72 39 -125 c92 -294 209 -721 209 -760 0 -6 -35 14 -77 43 -87 60 -279 180 -305 190 -29 10 -47 49 -82 178 -73 262 -150 468 -257 682 -45 90 -48 116 -10 84z m-10849 -29 c-5 -13 -30 -66 -56 -118 -107 -217 -200 -466 -245 -657 -11 -48 -25 -95 -29 -103 -5 -9 -42 -36 -82 -60 -40 -23 -131 -83 -202 -132 -71 -48 -131 -86 -133 -84 -6 6 33 152 94 356 31 102 79 261 107 355 l51 169 55 37 c148 98 418 258 437 258 9 1 10 -5 3 -21z m2289 -79 c16 -104 39 -179 101 -324 32 -77 45 -117 37 -120 -122 -37 -487 -171 -616 -224 -41 -17 -76 -29 -79 -26 -9 9 35 137 88 255 73 164 230 432 275 470 14 12 124 43 171 49 6 0 16 -35 23 -80z m6375 62 c73 -10 79 -16 179 -193 98 -174 139 -257 191 -386 50 -122 60 -158 47 -166 -5 -3 -40 6 -77 20 -87 33 -277 101 -462 164 -78 27 -146 51 -151 54 -5 3 5 39 21 78 65 158 118 356 118 440 0 7 13 8 38 4 20 -4 64 -11 96 -15z m702 -262 c137 -61 264 -120 283 -131 20 -13 41 -38 52 -63 43 -97 215 -653 205 -662 -3 -3 -70 26 -148 65 -79 39 -186 90 -238 113 -52 23 -98 47 -101 52 -4 5 -12 37 -19 70 -30 151 -156 453 -244 585 -42 62 -52 82 -42 82 2 0 115 -50 252 -111z m-7666 95 c0 -3 -26 -49 -59 -103 -112 -184 -165 -312 -220 -524 l-26 -101 -212 -106 c-117 -58 -218 -111 -225 -118 -25 -25 -41 -14 -33 25 11 58 71 262 136 458 70 214 75 221 224 290 187 88 240 112 310 140 39 16 74 32 80 37 11 9 25 11 25 2z m8443 -468 c45 -24 154 -81 242 -126 187 -97 411 -220 476 -261 29 -19 52 -43 63 -67 20 -46 74 -280 116 -507 17 -93 33 -182 36 -197 3 -16 2 -28 -1 -28 -12 0 -114 60 -232 136 -101 66 -178 112 -468 280 -49 29 -98 59 -108 66 -11 8 -31 67 -57 168 -47 185 -97 354 -144 484 -26 74 -31 96 -20 96 8 0 52 -20 97 -44z m-9403 -86 c-48 -133 -103 -326 -131 -451 -38 -178 -23 -156 -171 -243 -73 -42 -192 -114 -264 -159 -72 -45 -173 -108 -225 -141 -52 -32 -118 -74 -147 -94 -28 -19 -55 -32 -59 -28 -19 19 109 620 156 728 16 37 32 53 92 90 41 25 103 61 139 80 36 19 153 81 260 138 300 160 374 198 382 193 4 -2 -10 -53 -32 -113z m1978 -203 c246 -338 407 -499 791 -787 l46 -34 -30 -7 c-16 -4 -56 -7 -87 -8 -237 -5 -797 -127 -1056 -230 -213 -85 -384 -180 -397 -220 -5 -17 25 -69 129 -231 75 -115 163 -259 197 -320 l61 -111 -74 -77 c-192 -201 -280 -408 -281 -662 -1 -268 107 -491 323 -666 38 -31 70 -61 70 -68 0 -6 -11 -72 -24 -146 -77 -431 -41 -889 106 -1349 103 -322 282 -656 491 -915 176 -218 457 -468 692 -617 124 -78 400 -217 525 -264 329 -125 548 -182 855 -222 210 -27 597 -24 805 5 175 25 417 82 595 140 335 110 809 377 1035 583 155 141 261 255 385 414 340 434 540 937 595 1494 13 132 13 426 0 528 -18 141 -42 288 -52 313 -8 22 -1 32 86 115 156 149 224 251 272 412 23 76 27 107 28 228 1 161 -13 235 -74 377 -45 105 -109 198 -208 300 l-74 77 41 85 c36 75 156 262 310 484 28 41 51 78 51 83 0 25 -78 77 -225 149 -214 105 -374 159 -645 219 -211 46 -510 91 -605 91 -23 0 -56 3 -74 6 l-31 6 53 41 c354 277 483 405 780 773 26 32 53 67 60 76 11 17 18 16 107 -11 258 -79 632 -222 905 -347 236 -107 765 -374 878 -442 18 -11 55 -32 82 -47 238 -133 344 -198 593 -361 114 -75 218 -144 232 -153 14 -10 138 -93 275 -186 263 -176 450 -313 499 -364 30 -31 30 -31 18 -92 -18 -85 -13 -249 9 -336 27 -104 57 -165 133 -272 l67 -94 -77 -101 c-43 -55 -125 -164 -184 -241 -356 -470 -569 -741 -790 -1005 -53 -63 -151 -182 -218 -265 -157 -195 -548 -645 -602 -695 -3 -3 -68 -77 -145 -165 -77 -87 -239 -261 -360 -385 -121 -124 -290 -297 -374 -385 -151 -156 -224 -227 -616 -599 -104 -99 -237 -226 -295 -281 -124 -119 -305 -284 -410 -375 -81 -70 -285 -256 -390 -356 -81 -76 -251 -229 -445 -399 -81 -71 -153 -134 -159 -140 -6 -5 -42 -37 -80 -70 -38 -33 -106 -93 -150 -134 -110 -101 -634 -551 -642 -551 -3 0 -32 24 -65 53 -129 117 -325 197 -524 213 -176 14 -378 -57 -540 -188 -106 -86 -104 -85 -113 -72 -4 5 -50 46 -102 89 -101 83 -182 155 -400 355 -75 69 -180 163 -234 210 -235 203 -508 445 -616 545 -42 39 -177 160 -300 270 -355 316 -824 758 -1239 1169 -461 457 -787 792 -981 1011 -30 33 -73 80 -95 105 -241 262 -384 425 -575 660 -74 91 -191 231 -260 311 -142 166 -286 347 -446 559 -59 80 -145 189 -189 244 -44 54 -100 124 -124 155 -24 31 -91 117 -150 191 -59 74 -129 164 -157 200 l-50 65 58 75 c75 98 112 168 139 265 24 88 30 227 15 352 l-8 71 83 66 c84 67 229 168 586 411 197 133 277 186 583 381 506 323 1311 732 1835 932 123 47 467 165 496 171 4 0 34 -37 67 -82z m8631 -409 c34 -24 101 -73 150 -109 48 -37 102 -75 120 -85 35 -21 48 -52 56 -144 8 -77 60 -468 75 -559 12 -70 9 -82 -17 -59 -21 18 -171 124 -258 181 -33 22 -61 41 -63 42 -2 2 -11 63 -22 136 -22 159 -82 465 -110 566 -11 40 -20 76 -20 79 0 11 26 -3 89 -48z m-11783 25 c-27 -87 -105 -511 -133 -721 -3 -24 -15 -40 -46 -62 -93 -67 -322 -228 -323 -226 -2 1 28 198 66 431 16 99 32 209 36 244 8 78 6 75 204 216 80 56 152 110 159 119 18 22 44 21 37 -1z m6017 -109 c74 -14 230 -77 262 -106 7 -7 30 -26 49 -41 34 -27 113 -143 104 -152 -2 -3 -94 0 -204 6 -248 14 -902 2 -961 -16 -23 -8 -13 30 22 82 61 91 179 170 310 208 154 44 258 49 418 19z m232 -569 c277 -37 601 -136 805 -247 77 -42 291 -177 300 -189 3 -4 28 -24 56 -45 138 -104 289 -263 408 -428 107 -150 258 -499 302 -696 41 -184 44 -234 51 -637 l6 -402 -24 -6 c-30 -7 -282 -59 -414 -86 -55 -11 -181 -37 -280 -59 -145 -31 -199 -39 -275 -38 -79 1 -102 -2 -137 -20 -56 -29 -207 -72 -252 -72 -20 0 -56 7 -80 16 -52 18 -95 7 -132 -32 -19 -20 -24 -36 -23 -72 1 -26 4 -55 5 -65 3 -13 -10 -23 -51 -41 -483 -203 -776 -360 -1095 -587 -157 -112 -186 -134 -295 -227 -90 -78 -299 -292 -339 -348 -13 -19 -27 -34 -31 -34 -4 0 -11 21 -15 48 -10 75 -51 230 -90 343 -120 349 -434 839 -762 1188 -65 70 -278 266 -363 335 l-23 18 6 252 c8 314 20 384 124 705 116 358 381 737 658 941 70 52 175 123 196 133 8 4 30 17 49 29 344 211 694 311 1195 342 114 7 400 -4 520 -19z m-7447 -580 c176 -36 311 -179 342 -358 22 -123 -21 -248 -120 -348 -203 -205 -552 -157 -679 94 -45 88 -56 173 -37 267 38 180 151 307 306 345 73 18 105 18 188 0z m14319 -10 c66 -20 168 -98 211 -163 61 -91 77 -143 77 -252 0 -88 -3 -100 -34 -162 -88 -175 -280 -274 -463 -238 -283 55 -425 336 -302 597 32 66 122 161 184 193 94 49 215 58 327 25z m-9635 -408 c-40 -47 -176 -349 -197 -437 -37 -149 -46 -216 -71 -497 l-17 -203 -26 6 c-61 15 -169 82 -232 145 -113 113 -167 250 -156 399 10 138 74 269 189 382 126 124 320 212 477 217 34 1 41 -2 33 -12z m4898 -19 c80 -21 213 -83 269 -125 215 -164 303 -419 222 -643 -35 -94 -80 -159 -154 -223 -53 -45 -195 -127 -221 -127 -18 0 -26 32 -26 107 0 96 -29 399 -46 487 -8 43 -26 113 -39 155 -26 81 -134 317 -166 363 -11 14 -19 29 -19 33 0 10 95 -4 180 -27z m-5239 -1873 c106 -616 316 -1144 598 -1500 82 -103 274 -298 371 -376 95 -76 235 -158 323 -188 74 -26 74 -26 206 123 121 136 190 203 301 291 262 211 549 350 958 465 63 17 116 30 118 27 2 -2 -24 -19 -58 -36 -81 -42 -226 -137 -370 -242 -363 -264 -612 -496 -797 -745 -61 -83 -123 -156 -137 -163 -77 -35 -308 22 -459 113 -337 203 -696 619 -876 1016 -101 224 -180 504 -214 760 -16 112 -21 580 -8 641 7 33 8 33 16 -21 5 -30 17 -104 28 -165z m1070 -1210 c38 -20 57 -51 68 -109 11 -62 -1 -104 -41 -143 -41 -38 -81 -51 -134 -43 -55 8 -90 32 -114 80 -23 46 -25 88 -6 133 16 37 72 93 101 100 30 8 93 -1 126 -18z m1251 -842 c73 -44 95 -153 45 -228 -35 -53 -78 -78 -134 -77 -95 2 -163 66 -163 154 0 59 17 94 65 137 32 27 43 31 96 31 40 0 71 -6 91 -17z m454 -2914 c214 -39 363 -231 353 -455 -5 -98 -39 -173 -113 -242 -104 -98 -213 -138 -348 -129 -153 10 -307 119 -357 251 -72 192 23 446 202 538 89 45 162 56 263 37z"></path><path id="pNWaYEWCD" d="M9870 10309 c-98 -13 -200 -48 -297 -101 -93 -51 -231 -184 -282 -271 -83 -141 -34 -257 107 -257 58 0 39 -16 197 156 80 87 153 128 261 149 254 49 480 -22 589 -185 72 -107 89 -120 156 -120 91 0 149 75 129 168 -22 98 -134 245 -244 321 -69 48 -182 98 -268 120 -95 25 -248 33 -348 20z"></path><path id="p1sVll2r1" d="M8459 9185 c-58 -32 -74 -124 -38 -220 31 -83 146 -201 246 -253 106 -54 163 -66 293 -60 88 5 118 10 171 34 163 72 280 196 310 331 16 68 -6 132 -55 163 -69 42 -127 18 -189 -77 -85 -130 -148 -168 -277 -167 -61 0 -95 6 -119 18 -48 26 -119 93 -147 143 -39 65 -87 103 -132 103 -20 -1 -49 -7 -63 -15z"></path><path id="p14sjJ2iKw" d="M10605 9186 c-45 -19 -69 -71 -63 -137 7 -85 48 -162 131 -243 59 -58 88 -78 157 -108 225 -97 448 -57 613 108 143 144 177 298 81 373 -18 14 -41 21 -71 21 -51 0 -79 -22 -113 -91 -30 -60 -85 -115 -145 -147 -43 -23 -62 -27 -135 -27 -140 0 -191 30 -282 163 -64 95 -107 117 -173 88z"></path><path id="p8kPJprzn" d="M8524 8201 c-35 -22 -54 -65 -47 -105 3 -15 28 -52 55 -82 161 -176 519 -191 680 -29 41 42 63 94 54 129 -3 13 -19 38 -35 55 -36 39 -63 39 -162 6 -41 -14 -101 -28 -134 -32 -82 -8 -198 13 -267 48 -67 34 -101 36 -144 10z"></path></g></g></svg>